<svg height="512" width="512" xmlns="http://www.w3.org/2000/svg" data-name="Layer 1"><path d="M80.951 51.277c0-12.778 8.567-23.663 20.469-27.649a31.429 31.429 0 00-10-1.628c-16.8 0-30.469 13.134-30.469 29.277S74.62 80.554 91.42 80.554a31.429 31.429 0 0010-1.628C89.518 74.94 80.951 64.055 80.951 51.277zm19.535 63.561h-20A43.536 43.536 0 0037 158.324V181.9h20v-23.576a43.536 43.536 0 0143.486-43.486zm154.122 0h-20a43.535 43.535 0 00-43.485 43.486V181.9h20v-23.576a43.535 43.535 0 0143.485-43.486zm-19.535-63.561c0-12.778 8.567-23.663 20.469-27.649a31.429 31.429 0 00-10-1.628c-16.8 0-30.469 13.134-30.469 29.277s13.669 29.277 30.469 29.277a31.429 31.429 0 0010-1.628c-11.902-3.986-20.469-14.871-20.469-27.649zm154.127 0c0-12.778 8.567-23.663 20.469-27.649a31.438 31.438 0 00-10-1.628c-16.8 0-30.469 13.134-30.469 29.277s13.668 29.277 30.469 29.277a31.438 31.438 0 0010-1.628C397.763 74.94 389.2 64.055 389.2 51.277zm19.53 63.561h-20a43.535 43.535 0 00-43.485 43.486V181.9h20v-23.576a43.535 43.535 0 0143.485-43.486z" fill="#d4e1f4"/><path d="M91.42 92.554c23.418 0 42.47-18.517 42.47-41.277S114.838 10 91.42 10 48.951 28.517 48.951 51.277 68 92.554 91.42 92.554zm0-70.554c16.8 0 30.47 13.134 30.47 29.277s-13.669 29.277-30.47 29.277S60.951 67.42 60.951 51.277 74.62 22 91.42 22zM31 193.9h120.84a6 6 0 006-6v-29.576a55.548 55.548 0 00-55.485-55.486H80.486A55.549 55.549 0 0025 158.324V187.9a6 6 0 006 6zm6-35.574a43.536 43.536 0 0143.486-43.486h21.869a43.535 43.535 0 0143.485 43.486V181.9H37zm362.665-65.772c23.418 0 42.469-18.517 42.469-41.277S423.083 10 399.665 10 357.2 28.517 357.2 51.277s19.048 41.277 42.465 41.277zm0-70.554c16.8 0 30.469 13.134 30.469 29.277s-13.669 29.277-30.469 29.277S369.2 67.42 369.2 51.277 382.864 22 399.665 22zm-60.42 171.9h120.84a6 6 0 006-6v-29.576a55.548 55.548 0 00-55.485-55.486h-21.87a55.548 55.548 0 00-55.485 55.486V187.9a6 6 0 006 6zm6-35.574a43.535 43.535 0 0143.485-43.486h21.87a43.535 43.535 0 0143.486 43.486V181.9H345.245zm-99.703-65.772c23.418 0 42.47-18.517 42.47-41.277S268.96 10 245.542 10s-42.469 18.517-42.469 41.277 19.051 41.277 42.469 41.277zm0-70.554c16.8 0 30.47 13.134 30.47 29.277s-13.669 29.277-30.47 29.277-30.469-13.134-30.469-29.277S228.742 22 245.542 22zm-60.419 171.9h120.839a6 6 0 006-6v-29.576a55.548 55.548 0 00-55.485-55.486h-21.869a55.548 55.548 0 00-55.485 55.486V187.9a6 6 0 006 6zm6-35.574a43.535 43.535 0 0143.485-43.486h21.869a43.535 43.535 0 0143.485 43.486V181.9H191.123zm-60.582 183.317c9.031 57.273 59.97 98.281 117.932 98.281a123.95 123.95 0 0018.654-1.417 120.282 120.282 0 0074.036-40.851l27.179 19.715a18.224 18.224 0 005.821 22.825l80.478 58.289a18.884 18.884 0 0026-3.978l2.718-3.636a18.236 18.236 0 00-4.021-25.784L398.859 406.8a18.925 18.925 0 00-23.232 1.034l-27.145-19.69a113.269 113.269 0 0019.055-82.625c-9.991-63.351-71.268-106.8-136.587-96.865-32.33 4.92-60.585 21.911-79.561 47.844a113.4 113.4 0 00-20.848 85.145zM387.9 415.272a6.757 6.757 0 013.946 1.26l80.479 58.29a6.311 6.311 0 012.6 4.183 6.185 6.185 0 01-1.18 4.682l-2.718 3.637a6.814 6.814 0 01-9.372 1.425l-80.48-58.29a6.309 6.309 0 01-2.6-4.183 6.186 6.186 0 011.181-4.682l2.718-3.637a6.758 6.758 0 015.426-2.685zM232.754 220.514a111.954 111.954 0 0116.851-1.28c52.158 0 97.978 36.775 106.078 88.15A101.476 101.476 0 01337 383.579a108.17 108.17 0 01-71.68 43.065c-58.821 8.948-113.965-30.02-122.929-86.87a101.478 101.478 0 0118.68-76.194 108.171 108.171 0 0171.683-43.066z" fill="#0635c9"/><path d="M248.089 308.225c21.527 0 39.04-17.029 39.04-37.96s-17.513-37.96-39.04-37.96-39.04 17.029-39.04 37.96 17.514 37.96 39.04 37.96zm0-63.92c14.91 0 27.04 11.646 27.04 25.96s-12.13 25.96-27.04 25.96-27.04-11.646-27.04-25.96 12.13-25.96 27.04-25.96zM193.351 400.04h109.478a6 6 0 006-6V371.9a55.548 55.548 0 00-55.486-55.485h-10.507a55.548 55.548 0 00-55.485 55.485v22.14a6 6 0 006 6zm6-28.141a43.535 43.535 0 0143.485-43.485h10.507a43.535 43.535 0 0143.486 43.486v16.14h-97.478z" fill="#1ae5be"/></svg>