<svg height="512" width="512" xmlns="http://www.w3.org/2000/svg" data-name="Layer 1"><path d="M332.6 463.442a113.978 113.978 0 0158.425-204.69c-3.3-.288-6.63-.444-10-.444a113.976 113.976 0 100 227.951c3.364 0 6.691-.155 9.982-.442a112.776 112.776 0 01-58.407-22.375z" fill="#d4e1f4"/><path d="M45.608 413.353h220.649v-12H45.608A28.64 28.64 0 0117 372.745V138.426h358.514v113.883h12v-154.4A40.654 40.654 0 00346.906 57.3h-16V45.5a31.8 31.8 0 00-31.762-31.762h-1.032A31.8 31.8 0 00266.354 45.5v11.8H126.16V45.5A31.8 31.8 0 0094.4 13.741h-1.034A31.8 31.8 0 0061.605 45.5v11.8h-16A40.654 40.654 0 005 97.909v274.836a40.654 40.654 0 0040.608 40.608zM278.354 45.5a19.784 19.784 0 0119.761-19.762h1.032A19.784 19.784 0 01318.909 45.5v22.518a19.783 19.783 0 01-19.762 19.761h-1.032a19.783 19.783 0 01-19.761-19.761zm-204.749 0a19.784 19.784 0 0119.761-19.759H94.4A19.784 19.784 0 01114.16 45.5v22.518A19.783 19.783 0 0194.4 87.779h-1.034a19.783 19.783 0 01-19.761-19.761zm-28 23.8h16.03a31.794 31.794 0 0031.731 30.479H94.4A31.8 31.8 0 00126.128 69.3h140.258a31.8 31.8 0 0031.729 30.478h1.032A31.8 31.8 0 00330.876 69.3h16.03a28.641 28.641 0 0128.608 28.608v28.517H17V97.909A28.64 28.64 0 0145.608 69.3z" fill="#0635c9"/><g fill="#1ae5be"><path d="M381.025 246.308A125.976 125.976 0 10507 372.284a126.118 126.118 0 00-125.975-125.976zm0 239.951a112.987 112.987 0 01-68.425-22.817 113.983 113.983 0 1168.425 22.817z"/><path d="M444.353 407.292l-57.328-38.219v-76.789a6 6 0 00-12 0v80a6 6 0 002.672 4.992l60 40a6 6 0 106.656-9.984z"/></g></svg>