<svg height="512" width="512" xmlns="http://www.w3.org/2000/svg" data-name="Layer 1"><path d="M309.489 180.78c0-29.431 21.737-53.924 50.17-58.648a60.932 60.932 0 00-10-.837c-33.178 0-60.17 26.685-60.17 59.485s26.992 59.484 60.17 59.484a60.932 60.932 0 0010-.837c-28.433-4.727-50.17-29.216-50.17-58.647zm-80.172 242.927V337.3c0-33.959 27.944-61.586 62.293-61.586h-20c-34.349 0-62.293 27.627-62.293 61.586v86.412a13.913 13.913 0 0014 13.793h20a13.913 13.913 0 01-14-13.798zM122.965 133.78c0-29.431 21.737-53.924 50.17-58.648a60.913 60.913 0 00-10-.837c-33.177 0-60.17 26.685-60.17 59.485s26.993 59.484 60.17 59.484a60.913 60.913 0 0010-.837c-28.435-4.727-50.17-29.216-50.17-58.647zM42.793 377.707V291.3c0-33.959 27.945-61.586 62.293-61.586h-20c-34.348 0-62.293 27.627-62.293 61.586v86.412a13.913 13.913 0 0014 13.793h20a13.913 13.913 0 01-14-13.798z" fill="#d4e1f4"/><path d="M240.39 216.262H109.317c-54.764 0-99.317 44.12-99.317 98.35v61.648a25.927 25.927 0 0026 25.793h167.317a6 6 0 000-12H36a13.913 13.913 0 01-14-13.793v-61.648c0-47.613 39.17-86.35 87.317-86.35h29.24l7.554 21.815a9.833 9.833 0 002.333 4.072L131.7 338.912a6 6 0 001.3 5.034l24.459 28.965a6 6 0 004.548 2.129h.036a6.005 6.005 0 004.538-2.074L191.639 344a6 6 0 001.372-4.964l-15.275-86.944a9.86 9.86 0 00.836-2.017l7.554-21.814h54.264a62.3 62.3 0 0158.864 41.378 6 6 0 1011.322-3.976 74.316 74.316 0 00-70.186-49.401zm-66.964 12l-5.874 16.965h-10.421l-5.875-16.965zM162.1 359.806l-18.069-21.4 16.04-81.181h6.387l14.242 81.08zm3.825-154.337c39.795 0 72.17-32.068 72.17-71.485S205.72 62.5 165.925 62.5s-72.17 32.068-72.17 71.484 32.376 71.485 72.17 71.485zm0-130.969c33.178 0 60.17 26.685 60.17 59.484s-26.992 59.485-60.17 59.485-60.17-26.684-60.17-59.485S132.748 74.5 165.925 74.5z" fill="#0635c9"/><path d="M427.708 263.709H271.61c-40.965 0-74.293 33.01-74.293 73.586v86.412a25.926 25.926 0 0026 25.793H476a25.927 25.927 0 0026-25.793V337.3c0-40.581-33.328-73.591-74.292-73.591zm-80.323 40.965h6.386l14.245 81.079-18.6 21.5-18.069-21.4zm13.359-28.965l-5.875 16.965h-10.421l-5.874-16.965zM490 423.707a13.913 13.913 0 01-14 13.793H223.317a13.913 13.913 0 01-14-13.793V337.3c0-33.959 27.944-61.586 62.293-61.586h54.264l7.554 21.815a9.822 9.822 0 002.333 4.072l-16.748 84.763a6 6 0 001.3 5.034l24.46 28.966a6 6 0 004.548 2.128h.036a6 6 0 004.537-2.074l25.061-28.965a6 6 0 001.372-4.964l-15.274-86.949a9.908 9.908 0 00.836-2.016l7.554-21.815h54.265c34.348 0 62.292 27.627 62.292 61.586z" fill="#1ae5be"/><path d="M445.764 336.5H408.2a6 6 0 000 12h37.569a6 6 0 000-12zm-96.105-84.236c39.794 0 72.17-32.068 72.17-71.484s-32.376-71.48-72.17-71.48-72.17 32.068-72.17 71.485 32.375 71.479 72.17 71.479zm0-130.969c33.177 0 60.17 26.685 60.17 59.485s-26.993 59.484-60.17 59.484-60.17-26.684-60.17-59.484 26.992-59.48 60.17-59.48z" fill="#1ae5be"/></svg>