<svg xmlns="http://www.w3.org/2000/svg" width="2500" height="2500" viewBox="0 0 192.756 192.756"><g fill-rule="evenodd" clip-rule="evenodd"><path fill="#fff" d="M0 0h192.756v192.756H0V0z"/><path d="M101.555 124.896V67.141H89.179v57.755h12.376zm18.181 0V67.141h-12.375v57.755h12.375zm-37.433 0V96.019H69.927v28.877h12.376zm-6.264-31.733a6.158 6.158 0 100-12.316 6.158 6.158 0 000 12.316zm75.443 24.45c-2.574 4.766-7.615 8.002-13.41 8.002-8.414 0-15.234-6.82-15.234-15.234 0-8.412 6.82-15.233 15.234-15.233 8.412 0 15.234 6.821 15.234 15.233h-15.234l13.41 7.232zm17.163-17.672c1.311-2.791 4.109-4.723 7.396-4.723a8.21 8.21 0 110 16.422 8.21 8.21 0 01-7.42-4.691l.01 17.947h-12.377V96.019h12.377l.014 3.922zM32.187 124.896l-9.779-43.24H8.504l9.779 43.24h13.904zm18.641 0l-9.779-43.24H27.145l9.778 43.24h13.905zm4.736 0l13.446-43.24H45.786l9.778 43.24z"/></g></svg>