<svg xmlns="http://www.w3.org/2000/svg" viewBox="-19.48 -1.934 290.666 114.679" width="2500" height="940"><defs><style>.cls-1{fill:#5d7481}.cls-2{fill:#eb5f0a}</style></defs><g id="Layer_2" data-name="Layer 2"><g id="Layer_1-2" data-name="Layer 1"><path class="cls-1" d="M93.3 32.49v50.09h11.87V63.33h6.38l11.88 19.25h13.81l-13.17-21c7.23-1.5 11.16-7.07 11.16-14.09 0-9.52-7-15-20.61-15zm11.87 9.23h9c6.23 0 8.6 1.93 8.6 5.94 0 4.51-2.58 6.52-8.6 6.52h-9V41.72z"/><path class="cls-1" d="M177.78 42c-4.76-6.44-11.32-9.53-19.62-9.53-14.51 0-24.25 9.67-24.25 25.26 0 15.23 10.15 24.83 24 24.83 7.67 0 14.23-2.94 20-9.12v-18.3H156v8.78h10.44v5.77a14.6 14.6 0 01-8.3 2.68c-7.53 0-12.16-4.88-12.16-14.42 0-10.3 4.7-15.58 12.51-15.58 4.77 0 8.71 2.19 11.89 6.52l7.4-6.89z"/><path class="cls-2" d="M177.85 32.49v46.07h11.87V63.33h6.38L208 82.58h13.81l-13.16-21c7.22-1.5 11.15-7.07 11.15-14.09 0-9.52-7-15-20.6-15zm11.87 9.23h8.95c6.23 0 8.6 1.93 8.6 5.94 0 4.51-2.58 6.52-8.6 6.52h-8.95V41.72z"/><path class="cls-2" d="M219.54 32.49v32.44c0 11.21 7.19 17.65 20.88 17.65s20.37-6.65 20.37-17.86V32.49h-11.13V63c0 6-2.89 9.74-9.24 9.74s-9.18-3.71-9.18-9.74V32.49z"/><path class="cls-1" d="M183.77 82.58a6.5 6.5 0 10-6.5-6.5 6.5 6.5 0 006.5 6.5z"/><path d="M93.48 23h5.57v-.77l-1.47-.11-.37-.3v-4.39c.26 0 1 .07 1.56.07 2.9 0 5.43-1.31 5.43-4.74 0-2.23-1-4.19-5.84-4.19H93.3v.78l1.45.1.37.3v12.07l-.37.3-1.27.11V23zm3.73-13.51h1a3.77 3.77 0 012.76 1 3.59 3.59 0 01.89 2.73c0 2.14-1 3.48-3.38 3.48a6.39 6.39 0 01-1.31-.14v-7zm17.19 8.35c0-3-1.91-5.38-5-5.38-3.48 0-5.09 2.6-5.09 5.38a5 5 0 005.06 5.36c3.37 0 5.07-2.62 5.07-5.36zm-2.14.14c.06 2.19-1 4.35-2.93 4.35-2.3 0-2.92-2.58-2.92-4.51s.56-4.49 2.9-4.49 2.9 2.16 3 4.65zm12 3.08a5.15 5.15 0 01-2.74.92c-3.58 0-3.63-3.63-3.63-4.34 0-2.38.92-4.36 3.09-4.36a1.87 1.87 0 011.08.28v1.75a1.87 1.87 0 001 .3 1.11 1.11 0 001.17-1.17c0-.86-.78-2-3.11-2a5.08 5.08 0 00-5.38 5.41c0 3.4 2.21 5.33 5 5.33a6.53 6.53 0 003.49-1.1v-1zM147 23h4.84v-.7l-1-.11-.35-.34v-.76l4.91-5.43v6.19l-.37.34-1 .11v.7h4.84v-.7l-1.16-.11-.37-.34v-8l.37-.34 1.16-.11v-.7h-4.84v.7l1 .11.37.34v.6l-4.91 5.43v-6l.35-.34 1-.11v-.7H147v.7l1.17.11.37.34v8l-.37.34-1.17.08v.7zm21.9 0h4.83v-.7l-1.05-.11-.35-.39v-3.66h1c.76 0 1.35.39 1.82 1.5l1.17 2.74V23h3.47v-.7l-1.24-.15-.37-.26-1.21-2.44a3.31 3.31 0 00-2-1.88 2.7 2.7 0 001.36-1.45l.67-1.49a2.46 2.46 0 01.43-.69l1.45.82a1.22 1.22 0 00-.76-2.27c-1 0-1.65.76-2 1.75l-.73 1.68a2 2 0 01-2 1.31h-.95v-3.42l.35-.34 1.05-.11v-.7h-4.83v.7l1.16.11.36.34v8l-.36.34-1.16.11V23zm18.32 0h3.06v-.7l-1.17-.11-.33-.41v-6.24a3.44 3.44 0 00-.73-2.26 3.58 3.58 0 00-2.56-.82c-3.13 0-4.25 1.35-4.25 2.48a.64.64 0 00.16.44.88.88 0 00.51.12h1.49v-1.82a4 4 0 011.7-.35 1.5 1.5 0 011.25.46 2.93 2.93 0 01.52 2v.72a25.53 25.53 0 00-4 1.21 2.9 2.9 0 00-2.25 2.69 2.71 2.71 0 002.81 2.81 5.77 5.77 0 003.47-1.42l.3 1.22zm-.35-2a4.64 4.64 0 01-2.5 1 1.64 1.64 0 01-1.73-1.77 2.16 2.16 0 011.5-2 23.46 23.46 0 012.73-1V21zm14.38-8.36h-5.4c-1.43 0-3.78.37-3.78 2.86 0 1.45 1 2.34 2.58 2.5a2.73 2.73 0 00-1.65 1.47l-1.21 2.42-.35.26-1.08.15v.7h3.13v-.62l1.24-2.74c.32-.63.71-1.24 1.61-1.24h1.38v3.45l-.37.34-1 .11v.7h4.85v-.7l-1.2-.11-.37-.34v-8l.37-.34 1.17-.11v-.7zm-3.45 4.81a8.94 8.94 0 01-1.31.09c-1.64 0-2.64-.48-2.64-2 0-2 1.68-2.08 2.64-2.08a6.94 6.94 0 011.31.1v3.88zm7.34 5.55h5.59v-.77l-1.52-.11-.37-.3V9.45h4.44l.32.34.47 2.07h1.14V8.57H205v.78l1.4.1.37.3v12.07l-.37.3-1.24.11V23zM225 18.23c.16 0 .86-.09 1.27-.09a1.92 1.92 0 012.23 2c0 1.65-1.2 2.19-2.5 2.19a4.22 4.22 0 01-2-.47l-.37-1.9h-1v2.82a12.82 12.82 0 003.35.44c1.82 0 4.58-.52 4.58-3.12a2.57 2.57 0 00-2.56-2.6v-.05a2.58 2.58 0 002.17-2.45c0-2.4-2.51-2.58-3.91-2.58a12.07 12.07 0 00-3.18.46v2.51h.92l.32-1.7a4.41 4.41 0 011.84-.4 1.82 1.82 0 012 1.93c0 1.8-1.39 1.94-2.17 1.94a6 6 0 01-1-.07v1.1zm16 2.58a5.24 5.24 0 01-3.31 1.19c-2.64 0-3.49-2.23-3.49-4.48v-.16h6.8a3.08 3.08 0 000-.6c0-3.46-2.18-4.28-3.86-4.28a4.89 4.89 0 00-3.55 1.4 5.71 5.71 0 00-1.56 4.05c0 3 1.93 5.29 5 5.29a6.56 6.56 0 003.97-1.33v-1.08zm-6.7-4.37c.16-1.41 1-3.11 2.64-3.11a1.87 1.87 0 011.82 1.13 3.6 3.6 0 01.3 1.4v.58zm9.33 6.56H249v-.7l-1.38-.11-.37-.34v-8.33h2l.35.36.4 1.92h1v-3.14h-9.3v3.14h1l.28-1.92.36-.36h2v8.33l-.37.34-1.38.11v.7zm-110.12-1.94a5.16 5.16 0 01-2.75.92c-3.57 0-3.62-3.63-3.62-4.34 0-2.38.92-4.36 3.09-4.36a1.9 1.9 0 011.08.28v1.75a1.85 1.85 0 001 .3 1.11 1.11 0 001.17-1.17c0-.86-.78-2-3.12-2a5.08 5.08 0 00-5.36 5.43c0 3.4 2.21 5.33 5 5.33a6.55 6.55 0 003.49-1.1v-1zm34.79 0a5.15 5.15 0 01-2.74.92c-3.58 0-3.63-3.63-3.63-4.34 0-2.38.92-4.36 3.1-4.36a1.86 1.86 0 011.07.28v1.75a1.87 1.87 0 001 .3 1.11 1.11 0 001.17-1.17c0-.86-.78-2-3.11-2a5.08 5.08 0 00-5.38 5.41c0 3.4 2.21 5.33 5 5.33a6.53 6.53 0 003.49-1.1v-1zM134.12 23H139v-.7l-1-.11-.36-.34v-.76l4.92-5.43v6.19l-.37.34-1 .11v.7h4.85v-.7l-1.17-.11-.37-.34v-8l.37-.34 1.17-.11v-.7h-4.85v.7l1 .11.37.34v.6l-4.92 5.43v-6l.36-.34 1-.11v-.7h-4.85v.7l1.17.11.37.34v8l-.37.34-1.17.11V23zm85 0h3.06v-.7l-1.18-.11-.34-.41v-6.24a3.42 3.42 0 00-.72-2.26 3.61 3.61 0 00-2.57-.82c-3.13 0-4.24 1.35-4.24 2.48a.6.6 0 00.16.44.85.85 0 00.51.12h1.49v-1.82a4 4 0 011.69-.35 1.52 1.52 0 011.26.46 3 3 0 01.51 2v.72a25.53 25.53 0 00-4 1.21 2.91 2.91 0 00-2.24 2.69 2.7 2.7 0 002.81 2.81 5.77 5.77 0 003.47-1.42l.3 1.22zm-.36-2a4.64 4.64 0 01-2.49 1 1.65 1.65 0 01-1.74-1.77 2.16 2.16 0 011.51-2 23.28 23.28 0 012.72-1V21zm39 2h3.06v-.7l-1.17-.11-.33-.41v-6.24a3.44 3.44 0 00-.73-2.26 3.58 3.58 0 00-2.56-.82c-3.13 0-4.25 1.35-4.25 2.48a.6.6 0 00.16.44.85.85 0 00.51.12h1.49v-1.82a4 4 0 011.7-.35 1.5 1.5 0 011.25.46 2.93 2.93 0 01.52 2v.72a25.53 25.53 0 00-4 1.21 2.9 2.9 0 00-2.25 2.69A2.7 2.7 0 00254 23.2a5.77 5.77 0 003.47-1.42l.3 1.22zm-.35-2a4.66 4.66 0 01-2.5 1 1.64 1.64 0 01-1.73-1.77 2.16 2.16 0 011.5-2 23.46 23.46 0 012.73-1V21zm-106-12.41a1 1 0 00-.91-.5.94.94 0 00-1 1c0 1.41 1.54 2.21 3.45 2.21s3.44-.8 3.44-2.21a.94.94 0 00-1-1 1 1 0 00-.94.5v1.62a2.29 2.29 0 01-1.5.39 2.42 2.42 0 01-1.53-.39v-1.6zM28.42 46.91v-.15c-.47.11-.87.82-1.37.34-.15 0-.29-.27-.44-.08.16.4.65.45 1 .68a1.68 1.68 0 00.85-.79m-5.05-.42a1.46 1.46 0 00.75.74 2.15 2.15 0 001-.35.17.17 0 00-.08-.18c-.32 0-.6.28-.94.13s-.47-.77-.74-.34m1-.47c.5.18.39-.4.56-.61a.17.17 0 000-.07c0-.19.13-.47-.11-.56-.42-.13-.35.3-.52.51v.05c0 .24-.22.54.06.68m26.47 13.91c-.1 0-.09.16 0 .23a2.89 2.89 0 002 .22c0-.11 0-.28-.09-.33a3.56 3.56 0 01-1.89-.12M27.12 46.37a.46.46 0 00.51-.21 1.6 1.6 0 00-.18-.82 1.15 1.15 0 00-.2-.29c-.15 0-.35 0-.41.21a.25.25 0 000 .08 3.91 3.91 0 00.27 1M51 56.37c-.1-.12-.25-.57-.33-.18.25.17.27.43.41.66.34.34.72.87 1.19.85 0-.69-1-.67-1.27-1.33m10.28-6l1.09-.06a2.09 2.09 0 00.41-1.07c-.42-.27-.36.41-.67.56s-.71 0-1 .31a.23.23 0 00.13.26m-39.86-4.73c-.13-.11-.32-.19-.47-.3a.48.48 0 01-.22-.4c-.33-.17-.15.2-.1.4a.2.2 0 010 .07c.21.2.11.63.51.64l.95-.22c0-.38-.46 0-.68-.19m6.81 6c.39.13.71.55 1.17.39a2.48 2.48 0 00.72-1c-.45 0-.52.56-.93.59s-.77-.41-1 0m37.3-3.34a2.69 2.69 0 00.22-1.22.14.14 0 00-.18-.1.93.93 0 00-.21.53c-.23.6-.87.59-1.3.89-.08.09 0 .18 0 .26a2.57 2.57 0 001.42-.36m11.42-2.91c-.23.4.11.73 0 1.18s-.64.84-1 1.15a.11.11 0 000 .18 4.18 4.18 0 001.3-.65c.36-.57-.07-1.18-.09-1.76a.3.3 0 00-.26-.1M52.28 82.93c-.29 1-.84 2.17-2 2.34-.38.12-.83.06-1.18.21a2.59 2.59 0 002 0 2.81 2.81 0 001.75-2c.79-4.18-3.78-6.28-6.55-8.18-.26-.12-.44-.39-.7-.46a16 16 0 002.82 2.08c1.93 1.52 4.24 3.43 3.84 6.1M30.1 60.16a.15.15 0 000-.23 3.59 3.59 0 01-1.9.12.23.23 0 00-.08.33 2.86 2.86 0 002-.22m41.53-8a1.56 1.56 0 01-1 1.41c-.24.17-.82-.08-.83.38a.26.26 0 00.23.1c.43-.13 1-.08 1.34-.2.57-.38.57-1 .64-1.64-.09-.07-.23-.15-.34-.05m-19.11-5.4v.15a1.66 1.66 0 00.86.79c.33-.23.82-.28 1-.68-.16-.19-.29 0-.45.08-.49.48-.9-.23-1.36-.34m5-.27c-.27-.43-.47.26-.73.34s-.63-.09-.94-.13a.17.17 0 00-.08.18 2.07 2.07 0 001 .35 1.39 1.39 0 00.75-.74m-8 32.05a2.37 2.37 0 01.37 1.31c0 .29-.27.47-.46.71s-.49.1-.5.33a1.21 1.21 0 00.77-.08c.53-.19.58-.76.63-1.23a1.72 1.72 0 00-.86-1m2.21-26.95c-.42 0-.49-.64-.94-.59a2.42 2.42 0 00.73 1c.46.16.77-.26 1.17-.39-.19-.45-.58.13-1 0m7.08-5.76l1 .22c.39 0 .29-.44.5-.64a.64.64 0 000-.07c.05-.2.22-.57-.1-.4a.51.51 0 01-.22.4c-.15.11-.34.19-.47.3s-.64-.19-.69.19M56 45.41c.18.21.06.79.56.61.29-.14.07-.44.07-.68v-.05c-.18-.21-.11-.64-.53-.51-.23.09-.14.37-.11.56a.17.17 0 010 .07m9.45 10.45V56a3.12 3.12 0 001.91 0c.22-.51.73-.88.76-1.48a.27.27 0 00-.37 0 2 2 0 01-1.12 1.23c-.4.15-.83-.11-1.21.1M3.77 51c0-.5-.18-.13.13-.68 0-.14 0-.31-.11-.39l-.12.17c.09.16.13.42-.19.35-.2.11 0 .18-.31.1l-.2.13-.18-.09c-.12.08-.24.08-.31 0v.08a6.52 6.52 0 001 .69c.14-.24.27.09.54-.26h-.09l-.16-.1zm52.58.9c-.14-.05-.2.09-.29.14-.54.53-1.13 0-1.65-.19 0 .08-.14.14 0 .22.29.16.53.54.86.64.5.13.84-.31 1.19-.68 0-.06 0-.09-.08-.13m1.8-.37a3 3 0 001.28.42c.46-.21.57-.75.75-1.16-.54-.38-.54.54-1 .69-.33.1-.79-.31-1 0M3.62 48a1.15 1.15 0 01.38.27 1.89 1.89 0 010-.47h-.14l.17-.23h-.12l.09-.02h-.14.06l-.38-.06-.2.34h.07v.13h.12v.11h.28L3.62 48zm57.69 9.08a2.33 2.33 0 001.47.47 1.41 1.41 0 00.84-1.12c-.62 0-.84.94-1.58.66-.24 0-.59-.39-.73 0m-4 .17c-.06 0-.27-.1-.24.08a2.13 2.13 0 001.48.63c.3-.2.84-.47.77-.9-.3-.07-.43.3-.67.38a1.93 1.93 0 01-1.34-.19m-3.24-11.92v-.08c-.06-.18-.26-.17-.42-.21a2.11 2.11 0 00-.2.29 1.59 1.59 0 00-.17.82.45.45 0 00.5.21 4.35 4.35 0 00.28-1m-40.53 0a2.4 2.4 0 01-.12-1.16.35.35 0 00-.42.29 2.54 2.54 0 00-.11.87.5.5 0 000 .12 3 3 0 001.21.6c.24-.39-.39-.4-.54-.66a.21.21 0 000-.06m61 3.49c-.27.25-.05.71-.17 1-.09.71-.86.75-1.29 1.13v.15c.53.13.9-.25 1.39-.29.79-.3.3-1.21.38-1.84a.3.3 0 00-.31-.18m-56.45.36a2.18 2.18 0 00.41 1.07l1.1.06a.25.25 0 00.13-.26c-.26-.28-.69-.1-1-.31s-.26-.83-.68-.56m-8.5 4.66c.38.12.91.07 1.34.2a.27.27 0 00.23-.1c0-.46-.59-.21-.84-.38a1.58 1.58 0 01-1-1.41c-.11-.1-.24 0-.34.05.07.62.07 1.26.65 1.64m20.2 3c.14-.23.16-.49.41-.66-.07-.39-.23.06-.32.18-.32.66-1.25.64-1.28 1.33.47 0 .85-.51 1.19-.85m17.14 2.93l-.09-.1a.89.89 0 01.23-.59 2.64 2.64 0 001-.34c.1-.24.37-.46.27-.76-.93-.63-1.29.83-2.18.62-.25-.19-.2-.62-.16-.86a.23.23 0 01-.26-.1l-.4-1.28c0-.73-.19-1.42-.23-2.16a9 9 0 011.42-1c.11-.06.29-.18.39-.07a12.13 12.13 0 01-.93 1.45c.1.39-.3.66-.16 1 .36.16.73-.11 1.06-.27a31.74 31.74 0 011.6-2.82c.28-.51-.3-.66-.52-1-.49-.41-1 .17-1.51.2-.2 0-.74.23-.66-.24s-.23-1.09.39-1.2a2.76 2.76 0 00.2-1.48c.23-.3.62-.23.85-.54-.13-1-.36-1.93-.41-2.9v-.14c0-.05.22 0 .26-.13.22-.37-.23-.53-.36-.79s.22-.4.13-.63l-.76-.1c-.18-.23.06-.46 0-.71-.23-.12-.51.11-.73.26-.51.51-.82-.38-1.41-.14-.42.4.36.1.4.39a1 1 0 01-.43 0c-.53-.1-.65.56-1 .73 0 .17.18.09.24.2s-.24.08-.33.2.09.11.14.17c-.1.19-.36.25-.54.34.23.29.08.31-.12.32s-.33 0-.37.14a1.26 1.26 0 000 .28c-.29 0-.27.41-.49.44-.37-.18-.41-.53-.5-.86a1 1 0 00-.14-.34c0-.38-.47-.72-.16-1.06 0-.72.49-1.41.07-2.06-.23-.46-.68-.52-1.06-.66-.37.05-.65.38-.95.66s-.86.28-.93.81c0 .16.21.3.07.41a2.68 2.68 0 01-.94-.26.16.16 0 01.05-.18c.2-.46-.18-.86-.43-1.17-.64.13-.49-.78-1-.82-.15.27.24.5.19.82a2.84 2.84 0 00-.58 1.64l-.57.47a6.6 6.6 0 00-1.67 1.74c-.05.16-.09.42 0 .54.58.28 0 1 .57 1.18-.22.62.35.88.52 1.38.37 0 .75.24 1.13.07a1.59 1.59 0 011.33-.42c.36.08.57-.25.87-.31a1 1 0 01.26.34c.14.22-.11.33-.23.42a.34.34 0 00.09.41c0 .27-.41.19-.58.35-.38.35-.92.45-1.19 1-.53-.35-.89-1.15-1.61-1a1.59 1.59 0 00-1.25 1.14c-.36 1.12.12 2.29 0 3.4-.06.71-.52 1.28-.63 1.93a2 2 0 00.82-.35 2.8 2.8 0 001.48-1.4c.57-.92 0-2.34.69-3.17a1.31 1.31 0 01.33.44 8.19 8.19 0 01-.1 2.58c-.15.51-.71 0-.89.46a10 10 0 01-.16 2.12c-.39.86 0 1.92 0 2.83h-.1c-.49-.16-.27-.76-.33-1.17s-.6-.28-.75-.73c-.14-.25 0-.66-.14-.93-.34.33-.12 1-.33 1.38 0 .41.44.43.56.76a.69.69 0 01-.16.69 1.48 1.48 0 00.1.93 1.92 1.92 0 002.08.61c.92.49 1.77-.37 2.73.07l.09.1c.07.18-.11.32-.23.45s-.26 0-.19.21a2.61 2.61 0 001.25.27c.42.92 1.26.2 1.9.28a2.9 2.9 0 002.41.07c.15-.23 0-.46.13-.69a1.52 1.52 0 011.09-.66c.25-.05.45.23.65.39s.5-.17.73-.32c.78-.28 1.8 0 2.37-.76a2.44 2.44 0 00.5-.68.52.52 0 00-.21-.13 5.86 5.86 0 01-1.58.44m-12.55-8c-.16 1.17-.22 2.66-1.49 3.17a3.61 3.61 0 00.33-1.23c.33-1.24-.58-2.8.39-3.85a.7.7 0 01.72-.07c.16.16.44.23.47.49-.4.34-.33.94-.43 1.43m11.55.46c.41 0 .72-.25 1.15-.21a.76.76 0 011.06.14c-.14 1.09-1.42 1.61-1.42 2.84 0 .13-.18.17-.3.2a10.67 10.67 0 011.08-2.23c0-.19.29-.38.11-.59s-.45.2-.69.24l-1.39.62a4.57 4.57 0 01.4-1m.53-8.3c0 .06 0 .1-.07.15s-.2 0-.26-.05.21-.18.33-.1m-2.41-.13a.36.36 0 01-.45.1.37.37 0 01.45-.1m-1.35 2.78l-.14-.13c0-.05.3-.17.14-.34.13-.12.39 0 .4-.28s-.18-.08-.26-.14c.21-.16.63-.06.71-.36v-.08c0-.26.48-.12.3-.44 0-.29.41-.16.56-.39 0 0-.09-.1-.14-.1 0-.3.51 0 .5-.42a2.63 2.63 0 01.72-.47c.12.26-.39.69.07.89a.31.31 0 00.2-.07c0 .14 0 .36.23.38s.23.36.35.55a.94.94 0 01.06.15c.17.51 0 1.15.27 1.6 0 .41.24.67.21 1.07a1.14 1.14 0 01-.59.27c-.36-.71-1.18-.69-1.42-1.45 0-.25.06-.63-.19-.71l-.2.37c-.06.92.09 1.94 0 2.83-.17.15-.36 0-.53 0a4.68 4.68 0 01-1.89-1.83c.24-.24.47.19.66-.1 0-.33-.34-.27-.52-.41h-.33c.27-.11.84.12.82-.35m2.24 1.28c.49-.1.67.44 1 .73s-.23.36-.37.54l-.42.18c-.31-.42-.12-1-.17-1.45M41.29 47c.91 1.27 2.1 3.12 3.82 2.82.37-.1.54-.46.91-.56a1.73 1.73 0 01-.12.9c-1.12.79-2.18-.24-3.06-.85a9.78 9.78 0 01-1.62-2.21l.07-.1zm4.19 4.84a.79.79 0 01-.37-.61l.09-.11a.83.83 0 01.28.72M41.29 54a5.18 5.18 0 001 .68v.21c-.37 0-.94 0-1.11-.42-.13-.82-1-1.57-.38-2.44 0-.64-.61-1.06-1-1.57 0-.37.42-.55.7-.66.41.9 1.34 1.7.87 2.85a2.77 2.77 0 00-.08 1.35m-.53.44l-.12.07v-.11s.08 0 .12.07m-2.34-5.64a.61.61 0 01-.58.21c-.06-.1-.14-.18-.1-.31.22 0 .57-.25.68.1m-.73-2.2a12.36 12.36 0 01.62 1.58c-.34.18-.4-.24-.49-.45a2.06 2.06 0 01-.13-1.13m1.16 3a10 10 0 01.66 1.78c-.37 0-.77.15-1.11 0 0-.66-.36-1.25-.33-1.9.29 0 .5.12.78.12m1.81-2c.08.12.29.09.3.25-.16.1-.2.39-.42.24s-.41-.16-.54-.34a1.16 1.16 0 01.17-.66c.2.06.33.34.49.51m-1.06-3.92c0-.31-.19-.6 0-.9a1.13 1.13 0 01.45-.23c.16 0 .27.18.35.3a1.3 1.3 0 01-.23 1.2c-.24.09-.42-.2-.57-.37m.08 5.94a.28.28 0 01-.24.18 4 4 0 01-.44-1.31 2 2 0 01.69 1.13m-.08-1.47c.46.26.43.8.7 1.16-.11.1-.27.13-.32 0a7.61 7.61 0 00-.38-1.14m-1.08 3.74c.51.14 1.43-.51 1.41.46.09.21-.19.13-.29.2a4.68 4.68 0 01-1.19-.07c0-.2-.05-.43.07-.59m2.8-1.72c.26-.17.5 0 .75.07a2.27 2.27 0 01.21.86 1.33 1.33 0 01-.4 0c-.3-.27-.33-.68-.56-1m.86 1.38c.06 0 .08 0 .13.07s.06.5-.19.49H42c-.05-.19-.1-.52.16-.56m-.44-2.16c-.08-.25.17-.44.17-.69.24.21.44.56.7.83a2.93 2.93 0 01-.87-.14m-.26-1.07a.63.63 0 01-.07.55c-.09 0-.17-.12-.21-.2s.17-.27.28-.35m-.49.82c-.45.17-.58-.5-.78-.79a3.08 3.08 0 01.78.79m-.43-3.83a1.59 1.59 0 00.1.33c0 .3 0 .61.26.75 0 .27.17.52 0 .76a1.89 1.89 0 01-.68-.54c-.07-.25.11-.39.23-.56a1.63 1.63 0 00-.07-.74c-.06-.2-.14-.39-.19-.6.26.1.3.35.35.6m-.68-3.62a.8.8 0 01.59.37l.07.32c-.1-.22-.47-.2-.7-.15-.62 0-.55 1.28-1.32.79-.1-.11-.32-.14-.29-.34a4 4 0 011.65-1m-.63 2v.11c-.13 0-.21-.07-.3-.14s.21-.06.3 0m-1.41-.1c-.29-.06-.84.17-.92-.27a4.68 4.68 0 01.92.27M36 41.68a.46.46 0 01.5.22c0 .15.16.29.16.47a.23.23 0 01-.2.1c-.09 0 0-.23-.17-.21a1.91 1.91 0 00-.09 1.62A2.09 2.09 0 0137 45c-.27.2-.62 0-.92.1a4 4 0 01-.49-1.69 1.63 1.63 0 01.41-1.73m-2.34 4.78a8.14 8.14 0 01.64-1.12 2.44 2.44 0 01.49-.47c0-.36.76-.4.33-.74h-.43c-.25.4-.56.79-.84 1.18a7.49 7.49 0 00-.41.63c-.16 0-.21-.27-.23-.44a1.33 1.33 0 00.14-.19c.52-.69 1-1.57 1.86-1.7l.16.44v.74a2.34 2.34 0 00-.56.52c-.39.47-.64 1-1.07 1.47-.21 0-.17-.23-.13-.35m3.57.2v.76c-.24.11-.4.37-.63.45-.14-.56.25-1 .25-1.51-.45.38-.56 1-.89 1.51h-.22a4.67 4.67 0 01.83-1.9c-.07-.11-.22-.06-.3 0a7.6 7.6 0 00-1.18 2.23.32.32 0 01-.37.07c-.21-.08-.1-.31 0-.46a18.31 18.31 0 011-1.77c.09-.16.29-.18.3-.35-.16-.07-.31.1-.49.1A14.17 14.17 0 0034.15 48c-.13 0-.15-.2-.24-.3a14.61 14.61 0 011.32-2.17.52.52 0 01.17-.16.48.48 0 01.16-.08l.11.08c.47.29 1 0 1.53 0 .32.33.06.89 0 1.3m0-2.34V44c.3.14.65-.13.92.12.49-.09.69.52 1.19.44.18-.06.33-.31.55-.17.14.3-.13.61.11.93a1 1 0 01-.14.63c-.27 0-.48-.4-.75-.2 0 .35.3.42.45.62a1.84 1.84 0 01-.29 1.47c-.2 0-.35.22-.59.15a12.83 12.83 0 00-.77-2 2.88 2.88 0 010-.59c.26-.06.64.43.75 0-.41-.5-1.3-.22-1.35-1M35 59.31a.12.12 0 01-.23-.05c0-1-.43-2-.07-2.93.34-.68-.1-1.93.89-2.13.64-.73.12-1.88.33-2.75a1.89 1.89 0 01.52-1.35 2.39 2.39 0 011-.47l.35.62a6.91 6.91 0 01.31 2.5c.13.23.39.15.59.2h1.45c.15.13.11.35.19.49-.28.24-.82.11-1.22.1s-.66-.37-1 0c-.34 1.12-1.5 1.36-2.34 1.85a5 5 0 00-.88 2.75 4 4 0 00.1 1.2m4.28 0h-.66c-.17-.31.11-.53.35-.57s.54.07.67-.22a.61.61 0 00-.27-.47 1.57 1.57 0 00-1.25.41c-.28.25-.25.82-.72.82-.22-.11-.55 0-.66-.34s.25-.39.4-.52c.39 0 .68-.27 1-.41-.08-.23-.22-.45-.28-.68-.25-.09-.29.22-.44.34a1.68 1.68 0 01-.88.44c-.5.26 0 1.25-.73 1.1a.58.58 0 01-.37.07 4.74 4.74 0 01.53-3.6 8.79 8.79 0 001.84-1 10 10 0 01-.03 1.29c.95 1 2 1.91 2.82 2.92-.42.13-.91.06-1.27.37m2.09-.44c-.32.16-.38-.36-.65-.44-.71-.63-1.32-1.38-2.07-1.94s-.38-1.72-.33-2.53l.09-.12 1.36.32c0 .21-.26.36-.37.54a6.51 6.51 0 01-.66 1c0 .52.54.74.82 1.13a11.41 11.41 0 001.81 1.93v.1zm.66-.07a18.23 18.23 0 01-2.75-3 3.16 3.16 0 01.75-1.28c.15.09.08.39.33.42a.86.86 0 01.66.3c.38 1.14 1 2.19 1.25 3.36-.07.06-.11.21-.24.15m2.21 0l-.72-.06a.75.75 0 01.33-.69c.24 0 .43.09.56-.17 0-.18.08-.43-.1-.55-.39-.09-.69.32-1.08.38a2.32 2.32 0 00-.43 1c-.25-.08-.23-.43-.28-.69-.38-.9-.65-1.89-1.08-2.78.37-.17.73.33 1.06 0a.54.54 0 000-.62c-.19-.29-.52-.4-.68-.64a2.58 2.58 0 011 0L43 54a15.73 15.73 0 011.64 3.56 1.2 1.2 0 01.26.56c-.2.26-.49.4-.63.65m.7.14c-.07-.17.28-.33.27-.07s-.19 0-.27.07m.27-1c-.21-.19-.18-.49-.27-.72-.6-1.21-.73-2.71-1.81-3.64-.37-.41-1-.09-1.43-.14a1.75 1.75 0 01.17-.83c.23-.13.56-.09.7-.38a4.56 4.56 0 000-1.61v-.13a7.31 7.31 0 012.7 1.74c0 .84-1.25 1.35-.6 2.24 0 .45.33.85.07 1.28a16.16 16.16 0 00.62 2.13.13.13 0 01-.15.06m.39.83c-.14 0-.14-.15-.21-.2-.12-.36.29-.16.24 0s0 .14 0 .17m.36 1.4c-.09 0-.2 0-.23-.05s.32-.32.49-.15c0 .15-.17.16-.26.2m-19.49-8.06c.11-.08 0-.14 0-.22-.53.22-1.12.72-1.66.19-.09-.05-.14-.19-.28-.14s-.11.07-.08.13c.34.37.69.81 1.19.68.32-.1.56-.48.85-.64m-8.4 5.54a2.38 2.38 0 001.48-.47c-.15-.38-.49 0-.74 0-.74.28-.95-.65-1.58-.66a1.43 1.43 0 00.84 1.12M15.41 56c.06 0 0-.09 0-.14-.38-.21-.81 0-1.2-.1a2 2 0 01-1.13-1.23.26.26 0 00-.36 0c0 .6.53 1 .75 1.48a3.12 3.12 0 001.91 0m7.36-4.49c-.22-.36-.68.05-1 0s-.47-1.07-1-.69c.18.41.29.95.74 1.16a3.12 3.12 0 001.29-.42m30.6 29a3.35 3.35 0 012.05 2.17c.08.09.2 0 .23-.08a2.73 2.73 0 00-1.07-2 6.28 6.28 0 01-1.29-.42.22.22 0 00.08.29m-22.44-.67a2.46 2.46 0 01.42-1.31 1.67 1.67 0 00-.85 1c.05.47.1 1 .63 1.23a1.18 1.18 0 00.76.08c0-.23-.36-.16-.5-.33s-.46-.42-.46-.71M22.4 58a2.13 2.13 0 001.48-.63c0-.18-.18-.12-.25-.08a1.89 1.89 0 01-1.33.19c-.24-.08-.37-.45-.68-.38-.07.43.48.7.78.9m6.36 20.23c-.21-.17-.32.15-.52.15-.78.06-1.66.06-2.11-.64-.23.09 0 .32-.05.48a1 1 0 00.9.56 2.11 2.11 0 001.78-.55m-.12 4.7c-.4-2.67 1.91-4.58 3.84-6.1a16.42 16.42 0 002.82-2.08c-.26.07-.45.34-.7.46-2.78 1.9-7.35 4-6.55 8.18a2.79 2.79 0 001.75 2 2.57 2.57 0 002 0c-.35-.15-.79-.09-1.17-.21-1.14-.17-1.69-1.37-2-2.34m26.2-4.71c0-.16.17-.39-.05-.48-.45.7-1.33.7-2.11.64-.21 0-.32-.32-.53-.15a2.12 2.12 0 001.78.55 1 1 0 00.91-.56M15.59 47.5a.81.81 0 00-.21-.53.14.14 0 00-.18.1 3 3 0 00.22 1.22 2.61 2.61 0 001.43.36c0-.08.13-.17 0-.26-.43-.3-1.07-.29-1.3-.89m10.79 33.15a2.7 2.7 0 00-1.07 2c0 .09.14.17.23.08a3.31 3.31 0 012.05-2.17c.08-.07.16-.18.08-.29a6.7 6.7 0 01-1.29.42M61.71 40c.2-.08.08-.29.1-.44-.26-.19-.73 0-1.09-.09a.45.45 0 00-.18.48c.35.25.76 0 1.17 0m-.4 3.87a.11.11 0 000 .18c.41-.14 1 0 1.2-.42l-.12-1c-.46-.19 0 .4-.2.58-.1.48-.61.44-.91.65m-40.92-7.18c-.26 0-.61-.43-.77 0a.35.35 0 00.18.49c.43 0 .92.63 1.28.13 0-.34-.47-.4-.69-.6m58-1.27h.14a2.85 2.85 0 00.7-1.51 1.6 1.6 0 00-1.2-1.18c-.19.34.29.58.43.87.47.57-.07 1.24-.05 1.8m-15 4.78c.21-.56-.42-1-.7-1.38-.13.4.24.76.28 1.18s-.52.64-.46 1a2.19 2.19 0 00.88-.83M77.68 31c.17.06.26-.08.36-.19.24-.62.75-1.16.6-1.88a3 3 0 00-1.64-.85c-.19.49.45.38.64.69 1 .5.08 1.53.07 2.2M66.85 28h.07a4.07 4.07 0 00.77-2.82c-.37-.17-.59.4-.65.67a3 3 0 010 1.52c-.07.21-.24.41-.21.63m10-2.32a5.83 5.83 0 001.47-3.57 3.7 3.7 0 00-.25-1.18c-.36-.19-.6.33-.9.57s.23.25.34.47c.32 1.4-.37 2.51-.88 3.65 0 .09.14.06.22.06m-7.7 12.19c0 .25.17.38.25.58.35.44-.26.76-.29 1.18a.2.2 0 00.25.13c.24-.4.87-.7.75-1.22-.33-.22-.46-1-1-.67m9.14-.83c-.11.34.2.67.31 1 .2.59-.27 1-.41 1.52 0 .1.16 0 .21.1a2.25 2.25 0 001-1.66c-.34-.31-.56-.89-1-1m-.25 4.38c-.12.26.06.47.19.65a.69.69 0 010 .85c-.22.23-.53.37-.66.68a.42.42 0 00.31 0c.36-.34 1.15-.67 1-1.3-.2-.33-.38-.83-.82-.93m-9 .41c-.17-.25-.34-.62-.64-.72-.17.36.23.69.13 1.06s-.51.42-.6.71a.43.43 0 00.37.1c.29-.37 1.06-.57.74-1.15m-.13-5.69c.12.11.2 0 .29-.1.07-.47.5-.82.38-1.3-.37-.3-.64-.83-1.15-.87a.17.17 0 00-.1.22c.3.39.76.7.76 1.24a.86.86 0 00-.18.81m10.45.19v-.26a13.11 13.11 0 011.31-1.83 1.36 1.36 0 00-.13-1.31l-1.63-1.15v-.09l1.16-2.66c.16-.46-.15-.83-.39-1.16a17.77 17.77 0 01-2.5-.92c.33-.45.87-.73 1.26-1.23a5 5 0 001-5.42c-.35-.5-.43-1.4-1.22-1.45-.32.06-.53.34-.77.57h-.14a8.84 8.84 0 00-.21-5.66c-.32-.39-.65-.84-1.23-.78a8.1 8.1 0 00-1.54 1.8l-5.13 6.57a12.33 12.33 0 01-1.4 1.65c-1.44 1.65-2.78 3.35-4.34 5h-.4c-.67.61-1.35 1.3-2 1.92-1.73 1.67-3.7 3.21-5 5.18a3.86 3.86 0 00.08 2.8c.56 1.15 2.47 1.55 2.07 3.12a3.87 3.87 0 01-1.57 1.71 4.05 4.05 0 01-3.71-.38c-.17-.15-.49-.17-.51-.46a4.33 4.33 0 002.07-4.52c-.22-.06-.39.32-.6.5a3.67 3.67 0 01-3.81.57c-.21-.15-.55-.2-.66-.46a5.23 5.23 0 002.67-2.07c.07-.09.07-.32-.12-.29a3.15 3.15 0 01-1.67.32 3.46 3.46 0 01-2.71-2.26 5.69 5.69 0 012-5.8 3.22 3.22 0 011-.57c1.45.8 2.81-.35 4.35-.23 1.08.29 1.45 1.44 1.59 2.41l.1.07a2.24 2.24 0 00.85-2.29l.1-.08a5.12 5.12 0 003.47.85c1.11-.18 1.68-1.43 1.9-2.42 0-.35.16-.8-.07-1.07-.36.47-.77 1.15-1.36 1.39-1.82.31-3.12-1.14-4.79-1.42v-.07a4.5 4.5 0 013.14-.5c.67.2.91.92 1.16 1.45.5-.2.51-.84.68-1.3a3.81 3.81 0 00-1.84-4c-.71-.41-1.65-.27-2.27-.92-.27-.1-.75.13-.78-.31 1.95-.58 4.06-1.14 5.33-3 .61-1.49 0-3.2-.41-4.58-.1-.23-.06-.52-.2-.73s-.06-.29.11-.34a3.53 3.53 0 011.43.45 2.41 2.41 0 011.25 2.3c-.08 1.78-1.41 3.85.17 5.39a3 3 0 01.3 2.45c-.1.3-.62.53-.43.85a4 4 0 002.18-1.2c.54-.79 1.23-1.8.6-2.76-.12-.31-.63-.54-.44-.88.5.23 1.21-.07 1.69.23a2.26 2.26 0 01.94 1.52.59.59 0 00.29-.18 4.25 4.25 0 00.76-2.82c-.13-.3-.26-.69-.65-.8s-1.26 0-1.76-.29c.13-.73.75-1.26 1.07-1.93a2.23 2.23 0 00-.25-2.09c-.94-1.36-2.57-1.16-4-1.29-1-.87-1.84-2.22-3.16-2.33a1.26 1.26 0 00-1.27.38A6.18 6.18 0 0158 9.58c-1 1.31.46 2.51.68 3.76.15 1 .69 1.92.46 3-.77 1.12-2.13 1.21-3.31 1.56h-.1a1.55 1.55 0 00-.08-.56l.36-.79c.36-1 1-2.1.49-3.2s-1.72-1-2.79-1.06c-.13-.09.07-.23.09-.35.25-.57-.38-.86-.38-1.38.09-.12.18 0 .26 0a.25.25 0 00.33-.09c0-.38.13-.81-.15-1.11-.14-.07-.27 0-.41.06-.12-.16.1-.29 0-.47s-.12-.13-.22-.12a.83.83 0 01-.35 0 1 1 0 01-.35 0c-.1 0-.2 0-.22.12s.17.31.06.47c-.15 0-.27-.13-.42-.06-.28.3-.13.73-.15 1.11a.25.25 0 00.33.09c.08 0 .17-.15.26 0 0 .52-.63.81-.38 1.38 0 .12.23.26.09.35-1.06 0-2.18.08-2.78 1.06s.12 2.21.48 3.2l.36.79a1.68 1.68 0 00-.08.7L48.9 18a10.28 10.28 0 01-4.49-3.82v-.34h.22a2.84 2.84 0 00-.1-1.23l.54-1.18c.53-1.47 1.54-3.12.72-4.77-.9-1.46-2.57-1.53-4.15-1.58-.2-.14.09-.35.13-.51.37-.86-.57-1.29-.57-2.08.14-.18.27 0 .39.06a.38.38 0 00.49-.14c0-.57.2-1.21-.22-1.65-.22-.1-.4.06-.62.08-.16-.23.16-.42.08-.69A.27.27 0 0041 0a1.21 1.21 0 01-.53 0h-.07a1.15 1.15 0 01-.52 0c-.15 0-.3 0-.33.19s.25.46.08.69c-.21 0-.4-.18-.62-.08-.41.44-.19 1.08-.21 1.65a.36.36 0 00.48.14c.12 0 .26-.24.39-.06 0 .79-.94 1.22-.56 2.08 0 .16.33.37.13.51-1.58 0-3.25.12-4.15 1.58-.82 1.65.18 3.3.72 4.77l.53 1.18a3 3 0 00-.1 1.23h.23v.34A10.22 10.22 0 0132 18h-1.19a1.68 1.68 0 00-.08-.7l.36-.79c.36-1 1-2.1.49-3.2s-1.72-1-2.79-1.06c-.13-.09.06-.23.09-.35.25-.57-.38-.86-.38-1.38.09-.12.18 0 .26 0a.25.25 0 00.33-.09c0-.38.13-.81-.15-1.11-.14-.07-.27 0-.41.06-.12-.16.1-.29.05-.47s-.12-.13-.22-.12a.83.83 0 01-.35 0H28a1 1 0 01-.35 0c-.1 0-.2 0-.22.12s.17.31.06.47c-.15 0-.27-.13-.42-.06-.28.3-.13.73-.15 1.11a.25.25 0 00.33.09c.08 0 .17-.15.26 0 0 .52-.63.81-.38 1.38 0 .12.23.26.09.35-1.06 0-2.18.08-2.79 1.06s.13 2.21.49 3.2l.36.79a1.36 1.36 0 00-.08.56h-.12c-1.19-.35-2.54-.44-3.31-1.56-.23-1 .31-2 .46-3 .22-1.25 1.66-2.45.68-3.76a6.11 6.11 0 01-2.37-2.52 1.28 1.28 0 00-1.28-.38c-1.32.11-2.16 1.46-3.16 2.33-1.45.13-3.08-.07-4 1.29a2.2 2.2 0 00-.25 2.09c.32.67.93 1.2 1.06 1.93-.49.31-1.22.09-1.76.29-.38.11-.52.5-.64.8a4.15 4.15 0 00.76 2.82.55.55 0 00.29.18 2.26 2.26 0 01.94-1.52c.48-.3 1.19 0 1.68-.23.19.34-.31.57-.44.88-.63 1 .07 2 .61 2.76a4 4 0 002.17 1.2c.19-.32-.32-.55-.42-.85a3 3 0 01.3-2.45c1.58-1.54.25-3.61.17-5.39a2.4 2.4 0 011.25-2.3 3.48 3.48 0 011.42-.45c.17 0 .15.2.12.34s-.1.5-.2.73c-.46 1.38-1 3.09-.41 4.58 1.26 1.89 3.38 2.45 5.33 3 0 .44-.52.21-.78.31-.62.65-1.57.51-2.28.92a3.82 3.82 0 00-1.84 4c.18.46.18 1.1.68 1.3.26-.53.5-1.25 1.16-1.45a4.53 4.53 0 013.15.5v.07c-1.67.28-3 1.73-4.79 1.42A4 4 0 0118 24.46c-.23.27 0 .72-.06 1.07.21 1 .79 2.24 1.9 2.42a5.08 5.08 0 003.46-.85l.1.08a2.28 2.28 0 00.85 2.29l.11-.07c.14-1 .51-2.12 1.59-2.41 1.54-.12 2.89 1 4.34.23a3.11 3.11 0 011 .57 5.68 5.68 0 012 5.8 3.44 3.44 0 01-2.7 2.26 3.21 3.21 0 01-1.68-.32c-.18 0-.19.2-.11.29a5.23 5.23 0 002.67 2.07c-.12.26-.45.31-.67.46a3.68 3.68 0 01-3.8-.57c-.21-.18-.37-.56-.6-.5a4.33 4.33 0 002.08 4.52c0 .29-.35.31-.51.46a4.06 4.06 0 01-3.72.31 4 4 0 01-1.58-1.71c-.39-1.57 1.52-2 2.08-3.12a3.86 3.86 0 00.07-2.8c-1.3-2-3.28-3.51-5-5.18-.63-.62-1.31-1.31-2-1.92h-.42c-1.57-1.61-2.91-3.31-4.34-5a12.4 12.4 0 01-1.41-1.65l-5.12-6.53A8.37 8.37 0 005 12.86c-.58-.06-.91.39-1.24.78a8.77 8.77 0 00-.2 5.66c0 .06-.09 0-.14 0-.24-.23-.45-.51-.77-.57-.79 0-.87.95-1.23 1.45a5 5 0 001 5.42c.39.5.94.78 1.27 1.23a18.37 18.37 0 01-2.51.92c-.24.33-.54.7-.39 1.16L2 31.6v.19L.35 32.94a1.34 1.34 0 00-.13 1.31 14 14 0 011.31 1.83v.26c-.62.73-1.8 1.33-1.46 2.47.48.68 1.22 1.18 1.7 1.86-.15.47-.74.65-.94 1.09S.3 42.55.54 43l.28.51c.7.48 1.42.86 2.1 1.37a3.33 3.33 0 01-.13.45c-.2.57-.55 1.07-.75 1.66a.78.78 0 000 .16.76.76 0 00-.51.35.67.67 0 00-.37.48c-.33.08-.54.33-.37.8a.69.69 0 00.29.75v.15a.44.44 0 00.1.37.54.54 0 00.13.25.48.48 0 00.35.37v.1a.51.51 0 00.26.14.54.54 0 00.3.21c.21.19.44.36.64.56a.86.86 0 00.77.58.71.71 0 00.62 0c.22.19.58.13.78.35l-.17.39c-.12.33.26.56.44.84s.72.23 1 .47l3.5 9.5.59 1.65-.07.37a4 4 0 001.21 2.49 5.87 5.87 0 00.32 1.18c-.52.38-.23 1.15-.11 1.62s.57.43.84.66c0 .36.15.64.18 1-.32.32-.83.62-.94 1.1a2.61 2.61 0 00.73 1.79 7.06 7.06 0 000 .92 2.26 2.26 0 001 1.15 3.44 3.44 0 002.34 2c.72 0 .24.71.49 1.07a1.5 1.5 0 00.79.74c.81-.22.58.85 1.28.87a1.8 1.8 0 001.78-.55c.65-.69-.54-1.35.1-2a1.2 1.2 0 00-.41-1.33c-.21-.19-.61-.22-.66-.55.31-.34.75-.39 1.1-.62.89-.72 1.9-1.08 2.83-1.7a21.28 21.28 0 016.66-1.57c.92 0 1.91-.09 2.42-1a3.35 3.35 0 00-.65-2 4.27 4.27 0 001.19-.24 5.12 5.12 0 001.93-1.36v-.15c-.62 0-1.19.29-1.84.27a2.5 2.5 0 01-2.35-1.55c.06-1 1.14-1.25 1.78-1.7a3 3 0 012.42.46A26.62 26.62 0 0036.94 69a1.27 1.27 0 01-.28 1.28c-1.14 1-3 1.33-3.46 3-.27.4-.14 1-.49 1.35-1.92.27-3.32 1.88-5.08 2.59a2.64 2.64 0 01-1.95-1c-.07-.11-.07-.28-.22-.33a2.64 2.64 0 00-1.22 2.4A1.82 1.82 0 0025 79.6c0 .29-.38.35-.51.61a4.1 4.1 0 00-.33 4.18A5.08 5.08 0 0026 86.78l.08-.12c-.59-1-.12-2.25.35-3.15.27.12.05.57.16.82a3.52 3.52 0 001.61 2.6 3.78 3.78 0 003.43.17h.18a4.42 4.42 0 004.12 1.75 7.25 7.25 0 001.51-.58c.41.26.52.79.9 1.15a3.59 3.59 0 002.13 1.27 3.61 3.61 0 002.14-1.27c.37-.36.49-.89.89-1.15a7.47 7.47 0 001.51.58 4.41 4.41 0 004.12-1.75h.18a3.8 3.8 0 003.44-.17 3.51 3.51 0 001.6-2.6c.11-.25-.1-.7.17-.82.47.9.94 2.17.35 3.15l.07.12a5.1 5.1 0 001.87-2.39 4.1 4.1 0 00-.34-4.18c-.12-.26-.47-.32-.51-.61a1.82 1.82 0 00.71-1.34 2.6 2.6 0 00-1.22-2.4c-.15 0-.14.22-.22.33a2.64 2.64 0 01-1.95 1c-1.75-.71-3.16-2.32-5.07-2.59-.35-.33-.23-.95-.49-1.35-.49-1.63-2.33-1.92-3.46-3A1.3 1.3 0 0144 69a26.74 26.74 0 002.2-2.19 3 3 0 012.42-.46c.63.45 1.72.74 1.78 1.7a2.51 2.51 0 01-2.4 1.59c-.65 0-1.23-.28-1.84-.27v.15a5.23 5.23 0 001.94 1.36 4 4 0 001.46.25c.05.37.08.74.14 1.09.17.54 0 1.2.31 1.65a1.38 1.38 0 00.95.45 34.39 34.39 0 016.25.63A27.14 27.14 0 0162 76.6c1 .41 2 .92 3 1.39.75.31 1.22-.5 1.84-.73a10.54 10.54 0 002.59-.52 31 31 0 003-2c.21-.72 1-1.08 1.25-1.8.21-.31.12-.9.65-.92a1 1 0 00.45-.58 2.11 2.11 0 00.4-2c-.78-.67-.51-1.82-1.24-2.49a7.26 7.26 0 00-3.89-2.83c-.69-.7.66-.29.7-.87-.17-.49.26-1.43-.52-1.47-.38-.06-.12-.54-.24-.78-.54-.46-1.41 0-2-.22-.23.2-.18.49-.18.77s-.28.17-.44.15c-.55.32-.21 1.07-.3 1.62s.51.25.74.48c-.17.27-.52.21-.78.32-1.19.68-2.59 1.18-3.41 2.51-.62.64-.39 1.75-1.39 2.12a2.1 2.1 0 00-.28 1.73c0 .52.7.28.65.79a1.54 1.54 0 01.51 1.23c-.31.32-.64 1-1.16.84-.78.18-1.45-.32-2.25-.33-1.28-.4-2.6-.68-3.85-1.15.23-.27.38-.63.66-.81a2.3 2.3 0 002 .51c.43-.24-.15-.58-.23-.87s-.32-.64 0-.81a2.5 2.5 0 002.17-.11 2.24 2.24 0 00.91-2.3c0-.07-.08-.24-.22-.18a1.59 1.59 0 01-.61.72c-.2 0-.37.11-.53-.07a.93.93 0 01-.14-.66 6.48 6.48 0 00-.15-4.22 5.13 5.13 0 00-3.39-2.25c-.29-.07-.63 0-.87-.24-.07-.63-.89-.35-1.26-.71-.2-.16-.5-.27-.56-.55l.52-.08v-.18a10.9 10.9 0 01-1.38-3.65 4.67 4.67 0 01.23-2.78c.81.26 1.32 1 2.11 1.4.14.09.41-.07.51.13l.14 3.53c.4.64 1.14.9 1.7 1.4.38.13.7.5 1.15.31l1.52-1.34c.46 0 .76.42 1.21.53s1 .61 1.66.52a21.8 21.8 0 001.8-1.91c.13-.1.29 0 .44 0 1 0 1.85 1.08 2.78.38a13.86 13.86 0 001.1-1.89c.2-.22.27-.57.59-.64a6.36 6.36 0 002.57 0c.42-.17.39-.67.52-1 .3-.6-.14-1.85.89-1.82.77-.41 2.09.13 2.47-.89 0-.7-.1-1.48-.14-2.23.81-.5 1.83-.52 2.57-1.19a1.48 1.48 0 00.24-1c-.19-.59-.55-1.09-.75-1.66a2.3 2.3 0 01-.12-.45c.67-.51 1.4-.89 2.1-1.37l.28-.51c.23-.46-.14-.86-.28-1.25s-.79-.62-.94-1.09c.48-.68 1.22-1.18 1.69-1.86.35-1.14-.83-1.74-1.46-2.47m.6-3c.31.67-.43 1.11-.74 1.62-.43 1.39-1.9.77-2.87 1.09-2 .28-4 .45-6 .69l-.08-.08c.22-.26.26-.64.53-.85 1.53-.3 3.08-.53 4.61-.78.33 0 .67 0 .91-.31 0-.18.05-.44-.19-.5-1.59.3-3.21.54-4.85.74.17-.34-.26-.83.16-1 2.21-.48 4.27-1.32 6.49-1.77.81 0 1.37.72 2 1.14m-21 16.41a10 10 0 01-.71-2.29c.09-.11.12-.25.25-.3s.28.17.35.29a37.14 37.14 0 011.66 3.49 2.85 2.85 0 01-1 1.48c-.69-.12-1.3-.44-2-.62l-.12-.21c0-1.06-.42-2-.42-3.05a1.81 1.81 0 01.62-.31 21.65 21.65 0 01.69 2.06.43.43 0 00.63.13c.23-.18 0-.45 0-.67m.35-2.49a1.14 1.14 0 01.78-.06c.53.63.79 1.39 1.36 2 .17.07.35-.06.5-.15a12.42 12.42 0 00-1-2.05c-.09-.23.17-.32.21-.51.28 0 .33.34.48.5.63.72 1.07 1.51 1.62 2.25a3.84 3.84 0 01-.42 1.22 2.59 2.59 0 01-1.68.26l-.23-.26c-.4-1.11-1.14-2.09-1.56-3.2m2.07-1.48a.44.44 0 01.07-.34.57.57 0 01.11-.11l.21.05.07.06c.71.63 1.33 1.42 2.09 2a.39.39 0 00.41-.24v-.21a18.77 18.77 0 00-1.41-1.55c-.11-.12-.21-.24-.31-.37s.39-.23.58-.35h.12c.32.23.65.45 1 .69a15.61 15.61 0 011.71 1.5 4.56 4.56 0 01-.22 1.73c-.46.51-1.3.3-2 .37l-.23-.1c-.77-1-1.5-2.07-2.21-3.13m3.77-.34l-1.38-1.09a1.68 1.68 0 010-.55c.65.1 1.19.74 1.85 1a1.21 1.21 0 00.73.25c.11-.14.26-.34.1-.49-.92-.63-1.91-1.12-2.85-1.71 0-.11-.13-.2 0-.29A45.78 45.78 0 0168.09 44a5.56 5.56 0 01.41 1.35c0 .16.07.32.1.48-.15.33-.54.25-.81.38a2.55 2.55 0 01-1.23.28l-1.45-1.14zm1-2.57c-.8-.35-1.66-.55-2.45-.94-.1-.12 0-.21.08-.31h.44c1 .24 2 .5 3 .68.17 0 .24-.11.29-.25a.35.35 0 00-.14-.37 26.67 26.67 0 01-3-.75c-.06-.25.2-.42.32-.56 1.44.16 2.91.29 4.33.5a15.29 15.29 0 01.73 1.46c0 .52-.63.63-.95.93-.9.74-1.71-.36-2.63-.39m3.21-2.58c-1.47-.22-3.12-.21-4.63-.47-.07-.12-.18-.23-.18-.37l.1-.07c1.16 0 2.14-.16 3.3-.22a.44.44 0 00.14-.55l-.12-.1c-1.29.07-2.53.25-3.88.22-.21-.06-.31-.29-.37-.47l.07-.08c1.74-.32 3.46-.67 5.23-.93.56-.09.86.53 1.29.82.2.25.51.48.6.8a6.3 6.3 0 01-1.55 1.42m-2-5c-1.12.23-2.2.6-3.34.79 0-.24-.32-.56.09-.7 1.42-.67 2.89-1.2 4.32-1.87.74-.06 1.23.57 1.82.92.47.62-.36 1.17-.49 1.77l-.24.23c-2 .45-3.94.88-6 1.2-.06-.21.1-.41.15-.62.77-.49 1.76-.43 2.57-.81.42-.18.92-.11 1.28-.39a.36.36 0 00-.19-.52m11.91-6.9c.23.14.15.43.12.63a20.15 20.15 0 01-1.29 2.59c-2.18.76-4.47 1.32-6.74 1.93-.32.1-.82.3-1.1 0v-.14a52.85 52.85 0 015.53-2.37c0-.23 0-.57-.27-.69a58.12 58.12 0 01-5.86 2.08c-.19-1.07 1.11-1.32 1.73-1.87 1.6-.91 3.17-1.93 4.75-2.91a19.55 19.55 0 013.13.75m-10.64-.91a11.27 11.27 0 00.29-2.13c1.83-2.25 4.45-4.13 5.52-6.74 0-.21 0-.43-.16-.55s-.4-.08-.44.15a6.57 6.57 0 01-1.35 2.23c-1 1.37-2.37 2.47-3.53 3.77-.2 0-.2-.34-.29-.51v-.47l5.66-7.26A12.57 12.57 0 0176 13.74c.61-.12.55.58.75.9a7.35 7.35 0 01-.49 5.08c-1.62 2.78-4.48 5.09-6.84 7.36l-1.08 1c-.06-.2.18-.43.25-.66m7.83-5.94a15.88 15.88 0 011.78-1.6c.32 0 .43.42.59.65.43 1.76.33 3.77-1.19 5-1.2 1.19-2.69 1.78-4 2.79a23.11 23.11 0 01-3.47 2.18c-.13-.21 0-.52-.27-.68a.71.71 0 00-.32-.23v-.1c2-1.47 3.87-3.07 5.81-4.58a2.69 2.69 0 00.74-1.26.74.74 0 00-.22-.48c-.17-.09-.36.11-.39.26a4.61 4.61 0 01-1.2 1.57q-2.84 2.13-5.64 4.29h-.3V29c2.76-2.45 5.35-5.1 8.11-7.6m-12.52 7.27c1.23-1.5 2.51-3 3.89-4.43.14 0 .2.17.22.29a4.87 4.87 0 01-1.93 4.77 21.67 21.67 0 01-2 1.62c-.51-1.2 1-1.51 1.46-2.34.26-.28.8-.56.6-1a.29.29 0 00-.31-.14C65.27 28 64.64 28.52 64 29c-.18 0-.09-.26-.08-.37m2.95 1.1a7.61 7.61 0 012.25.51.47.47 0 010 .55l-.65 1.69c-1 .62-2 1-3.06 1.52-.79.43-1.62.72-2.44 1.07-.22-.08-.61-.19-.59-.46 1.32-.74 2.59-1.56 3.95-2.2a.35.35 0 00.11-.52.38.38 0 00-.52-.17 25 25 0 01-3.19 1.7v-.02a49.44 49.44 0 014.11-3.63m-9.65 13.46c1-.87 2.21-1.95 1.85-3.38-.29-1-1.46-1.64-2.11-2.46-.87-2.08 1.06-3.6 2.42-4.92C60.54 31.3 61.82 30.22 63 29c.2-.1.22.15.26.25.89 3.08-2.53 4.74-4.13 6.94a.21.21 0 00.16.26 2.74 2.74 0 00.86-.46c.58-.19 1-.87 1.68-.69.47.36 1.58.27 1.34 1.19-.24.4-.2 1-.71 1.22s-1.36.21-2 .48c-.1.09-.07.17 0 .29a1.76 1.76 0 00.94 0l1.32-.16a7 7 0 011.24 1.36c.13.71-.73 1.11-1 1.68-.84.15-1.52-.36-2.34-.36-.14 0-.17.15-.15.29.78.62 2.26.42 2.45 1.61-.08.4.4 1-.13 1.18a4 4 0 01-1.49.27l-1.56-1.47a.37.37 0 00-.26.16c.11.55.69.89 1 1.33.49.29.42.64.26 1a2.46 2.46 0 00-.3.83 1.69 1.69 0 01-1.71-.08 3.34 3.34 0 01-.49-.75c-.13-.25-.24-.52-.35-.77a.35.35 0 00-.45-.13l-.1.18a3 3 0 00.27.72c.27.57.57 1.15 0 1.69-.28.38-.68.64-1.1.43s-.82 0-1-.46l-.14-1.66v-.13c-.08-.15-.24-.15-.39-.15l-.15.19a.28.28 0 010 .09c0 .76.21 1.64-.32 2.16-.42.19-.75.72-1.27.58-.45-.46-1.34-.88-1.05-1.68.14-.36.37-.7.52-1.06a2.11 2.11 0 00.15-.56.27.27 0 00-.37-.12 2.15 2.15 0 00-.4.68c-.31.77-.51 1.69-1.65 1.35-.11 0-.11-.08-.16-.11.07-.5.82-.08.91-.53-.23-.28-.69 0-.88-.31v-1.91c.12-.19.35-.36.25-.59-.47-.22-.2-.84-.28-1.25.29-.12.62.07.95.09 1.68 1.23 4 2.4 6 1.12m-5 19.37c-.49-.44-1-.89-1.43-1.31a1.93 1.93 0 011.84 1 3.1 3.1 0 01.63 1.35A4.72 4.72 0 0150 62.27a1.1 1.1 0 01.2-.6c.59.37 1.18.8 1.76 1.25.13.06.22-.09.28-.19v-.13zm4 2.74c-.07-.32-.34-.59-.31-.91a.44.44 0 01.55.17 4.89 4.89 0 01.16 2.76h-.08c-1-.91-1.26-2.11-2.07-3.09v-.14c.56 0 1 .49 1.22.93.16.24.12.7.49.72.13-.09.08-.3 0-.44m-1.51.29a5.93 5.93 0 01.76 1.56c-.24.14-.54-.1-.79-.17-.84-.53-2-1.28-2.21-2.3h.15c.48.39.79 1 1.37 1.22.11-.05.08-.22 0-.29l-1-1.16c0-.11.05-.09.11-.14.87-.17 1.11.84 1.59 1.29m-1.26 3.6l.18-.24.08-1.66a1.48 1.48 0 01.15.88 3.69 3.69 0 01-.9 2.92c-.1 0-.1-.13-.15-.19a5.27 5.27 0 01.24-2.43 2.92 2.92 0 01.12-1l.08.11c-.09.52.05 1.13-.08 1.62 0 .12.19.07.26 0m-2.31-21.84a7.44 7.44 0 01-.74 1.88l-.07-.06v-1.65c.16-.27.56-.21.84-.17m1.8-8.32c.38-.17.75-.39 1.13-.58a3.19 3.19 0 01-1.53 2.42 2.12 2.12 0 01-1.73.27c-.93-.2-.51-1.59-.58-1.85l-1.43-.06a7.5 7.5 0 01-1.84-2.79c1.48 1.91 3.6 3.38 6 2.59m-10.11 0c-.16 0-.13-.2-.2-.31 0-.61-.6-1-.39-1.7a9.24 9.24 0 01.56-2c.06 0 .09 0 .14.06a4.88 4.88 0 01-.17 3.86zm-8.2-15.36c-.13.05-.23-.05-.31-.11-.78 0-1.11-.82-1.57-1.32v-.1h.41a2.2 2.2 0 011.47 1.53m-.18-1.58l.47-.07a17.42 17.42 0 012 1.25 4.54 4.54 0 01-2.14-.52c-.16-.2-.39-.41-.35-.66m-.33 2.09h.11a4.27 4.27 0 011.55 2.86h-.04a8.74 8.74 0 00-1.7-1.8v-.11h.22c.3-.25-.08-.64 0-.92m0 7.05l-.08.07a5.66 5.66 0 01-.43-2.61c.06-.08 0-.31.19-.26a3.56 3.56 0 01.32 2.8m.69-.4c.07-.09 0-.3.23-.28a4.72 4.72 0 01.7 3.6 4.43 4.43 0 01-.49 1.39h-.08a9.58 9.58 0 01-.36-4.68m-.06 5.88a5.76 5.76 0 01-.7 2.52 1.22 1.22 0 01-.78 0l.62-.91a15.58 15.58 0 01.86-1.56m.68.42c.08-.1 0-.3.19-.3a10.46 10.46 0 01.27 2.33c-.24.24-.6.1-.92.09.12-.73.4-1.37.46-2.12m.2-6.94a16.28 16.28 0 01-1.22-3.58c.44.19.58.63 1 .9a6.11 6.11 0 01.49 3.2V31c-.19-.22-.21-.49-.36-.71m-.26-6.35l.08-.08a7.34 7.34 0 012.63 2.65 4.18 4.18 0 01.52 1.34 6.75 6.75 0 01-3.23-3.91m3.45 4.79A6.77 6.77 0 0140 32.87h-.11a18.72 18.72 0 01-2.1-4c0-.32-.4-.59-.27-1a8.86 8.86 0 001.32.79m-2.15 9.4c.17-.14.2-.43.45-.44a12.74 12.74 0 00.34 1.63c-.22.13-.52 0-.78.06a3.5 3.5 0 010-1.25M36.36 37a35.24 35.24 0 01.12-4.71l.08-.06c1 1.16.74 3 .18 4.28-.11.17-.13.47-.38.49m.23-6.84a14.54 14.54 0 01-.14-2.28l.08-.06a8 8 0 011.32 5.35l-.11.1a13.32 13.32 0 01-1.15-3.11m1.46 4.91c.05 0 .08-.09.14-.06a10.49 10.49 0 01.56 2c.2.66-.39 1.09-.4 1.7-.06.11 0 .28-.19.26a4.88 4.88 0 01-.11-3.93m.45-2.89l.07-.07.87 1.41a9 9 0 01-.17 2.38l-.11.11c-.16-1.29-.93-2.41-.66-3.83m1.4 3.26l.11-.11a7.8 7.8 0 010 3.78l-.22.21c-.22.1-.46 0-.69 0 0-1.35.8-2.45.79-3.84m.11-6.19c-.64-.92-.79-2-1.34-3-.39-.75-.93-1.45-1.39-2.19l.07-.06c.68-.07 1.47 0 2-.34 0-.23-.36-.17-.54-.27a12.9 12.9 0 01-3-1.75v-.1a8.88 8.88 0 001.34-1.4c.06-.17-.08-.19-.18-.24h-1.28l-.14-.14c.48-.54 1.24-.92 1.5-1.59-.32-.16-.81 0-1.07-.18.93-.81 2-1.29 3-2.15l1.57-1.42 1.46 1.4c.94.86 2.07 1.34 3 2.15-.26.18-.75 0-1.07.18.26.67 1 1.05 1.5 1.59l-.14.14h-1.28c-.11.05-.25.07-.18.24a8.39 8.39 0 001.33 1.4v.1a12.9 12.9 0 01-3 1.75c-.18.1-.5 0-.55.27.51.38 1.31.27 2 .34l.08.06c-.46.74-1 1.44-1.4 2.19-.55 1-.7 2.08-1.33 3a6.44 6.44 0 00-.48 1.38 7.75 7.75 0 00-.48-1.36m.18-20.64a.45.45 0 01.3-.09.4.4 0 01.29.09c.31.15.34.44.38.74a.75.75 0 01-.67.43.73.73 0 01-.67-.43c0-.3.07-.59.37-.74m-.09-2.11a.87.87 0 01.39-.35.91.91 0 01.38.35.6.6 0 010 .58 1.53 1.53 0 01-.42.42 1.56 1.56 0 01-.44-.42.63.63 0 010-.58m0 4.67c.1-.17.28-.15.44-.18s.34 0 .43.18a.85.85 0 01.17.75.73.73 0 01-.6.41.72.72 0 01-.6-.41.82.82 0 01.16-.75m7 14.12a9 9 0 00-1.74 1.8h-.05a4.23 4.23 0 011.55-2.86h.11c0 .28-.36.67 0 .92h.22v.11zm.2 3.19c.18 0 .13.18.19.26a5.66 5.66 0 01-.43 2.61l-.08-.07a3.56 3.56 0 01.32-2.8m-.52-4.87c-.1.06-.19.16-.33.11a2.24 2.24 0 011.47-1.53h.42v.1c-.47.5-.79 1.32-1.56 1.32m-.5-.81a4.48 4.48 0 01-2.14.52 19.29 19.29 0 012-1.25l.48.07c0 .25-.19.46-.36.66m-2.72 5.09c.13.36-.23.63-.27 1a17.86 17.86 0 01-2.1 4H41a6.84 6.84 0 011.17-4.18 8.29 8.29 0 001.31-.79m-2.58 7.43l.11.11c0 1.39.79 2.49.8 3.84-.23 0-.47.14-.7 0l-.22-.21a8.05 8.05 0 010-3.78m.85.68l-.1-.11a9 9 0 01-.17-2.38l.86-1.41.08.07c.27 1.42-.5 2.54-.67 3.83m1.42-2.74l-.11-.1a8 8 0 011.33-5.35l.08.06a13.44 13.44 0 01-.15 2.28 12.48 12.48 0 01-1.15 3.11m1 3.24c-.56-1.29-.87-3.12.18-4.28l.08.06a33.65 33.65 0 01.13 4.72c-.24 0-.27-.32-.37-.49m.09 2.8c-.26 0-.56.07-.78-.06a14.72 14.72 0 00.34-1.63c.24 0 .28.3.45.44a3.5 3.5 0 010 1.25m-1.94-11.5a4.21 4.21 0 01.53-1.34 7.31 7.31 0 012.62-2.65l.08.08a6.71 6.71 0 01-3.23 3.91m3.22-.24c.39-.27.53-.71 1-.9a15.3 15.3 0 01-1.22 3.58A5.83 5.83 0 0145 31l-.08-.08a6.12 6.12 0 01.68-3.31m.22 8h-.08a4.44 4.44 0 01-.5-1.39 4.68 4.68 0 01.71-3.6c.17 0 .15.19.22.28a9.58 9.58 0 01-.35 4.68m.2 3.74c-.32 0-.68.15-.92-.09a11.09 11.09 0 01.26-2.33c.17 0 .12.2.19.3.06.75.35 1.39.47 2.12m1.08-1l.61.91a1.21 1.21 0 01-.78 0 5.62 5.62 0 01-.69-2.52c.32.47.58 1 .86 1.56m2.9-1.83c.2.07.5 0 .6.18a3.79 3.79 0 01-2.16.52 7 7 0 01-1.69-2.32 1.48 1.48 0 01.14-.82A4.44 4.44 0 0050 36.44m-2.9-8.76v-.22a9.67 9.67 0 011-1.88c.15.15-.18.8.35.65a6.26 6.26 0 011.22-.83 6.3 6.3 0 01-2.56 2.28m1.32.21v-.11a16.92 16.92 0 002.87-3.36h.08c.26 1.82-1.77 2.61-2.95 3.47m8.47 0h-.07c-.34-.65-.78-1.56-1.65-1.59-1.27-.19-2.22.59-3.4.39.07-.19.33-.29.51-.37a4 4 0 012.85-.75 2.9 2.9 0 011.51 1.07 1.61 1.61 0 01.25 1.25m4.85-1.34a.88.88 0 01-.54.56c-1.88.36-3.31-.9-4.77-1.89v-.12c2 0 3.3 1.85 5.34 1.45m-3.55-6.15a2.58 2.58 0 012.28 1.14 3.18 3.18 0 01.58 2.08l-.09.08c-.74-1-2.08-.79-3.1-.54s-1.78.67-2.65 1c-.19 0-.32.18-.48.07 1.25-1.17 2.31-2.61 3.42-3.84m3.24-4.54a3.3 3.3 0 01-1.08.88c.76-2.07-.51-3.79-.86-5.65.22.35.17.93.6 1.2l.15-.16c-.08-.39-.17-.8-.24-1.21.17.31.26.71.45 1 .14.07.21-.1.26-.18 0-.37-.23-.6-.23-.94.23.2.14.71.52.79.22-.35-.12-.71-.16-1.06a3.74 3.74 0 00.3.54c.32 1.51 1.45 3.34.26 4.8m8.1 1.48a2.2 2.2 0 00-1.42-1.18 3.21 3.21 0 01-2.36-.59h-.1c-.11.25.18.4.22.63-.14 1.1 1.46 1.4 1 2.58a3.5 3.5 0 01-1.33 1.64.9.9 0 010-.52 8.41 8.41 0 00-1.24-3.2c-.27-1.39.71-2.45.64-3.84a3.37 3.37 0 00-1-2.4c1.19.29 2.48.26 3.5 1a.5.5 0 010 .55c-.48 1-1.4 2.1-.75 3.21.8 1.28 3.41-.46 3.11 1.7-.07.17-.13.43-.32.45m-8.83-8.65c.44 0 .82.32 1.26.39a.22.22 0 00.06-.34 5.57 5.57 0 00-1.25-.56v-.08a1.9 1.9 0 011.4.42c.07 0 .21 0 .17-.15-.06-.29-.4-.41-.59-.62a1 1 0 01-.44-.18 7.46 7.46 0 011.18.4l.1-.11c-.14-.21-.41-.31-.55-.51A3.59 3.59 0 0164 9l-.06.07c-.56.06-1.1-.07-1.61 0-.06.07-.15.12-.11.22l.22.19c2.25.4 5.31-.82 6.34 1.86.59 1.43-1.73 2.08-1.15 3.4l.26.18c.71.09 1.73-.31 2 .44-.21 0-.38-.17-.58-.21-.84 0-1.73.25-2.33-.4-.29-1.23 1-1.85 1.28-2.88-.05-.38 0-.82-.46-1-1.81-.88-4-1-6-1.36-.2-.64-1.06-.38-1.55-.66 0-.16.24-.19.36-.13m-1 7.66c0-2.17-.82-4-1.47-6a.88.88 0 01.4-.66c.69-.55 1.63-.25 2.45-.18-.66.19-1.78-.29-2.2.61 0 1.66 1 3 1.13 4.6a2.73 2.73 0 01-.67 2.45 5.5 5.5 0 01-2.47.86c1-.37 2.33-.58 2.83-1.71M57 19.58a.48.48 0 01.36.1c.22.24-.1.48-.17.71a14.85 14.85 0 01-5.25 5.08c0-.67.89-.75 1.29-1.2a8.68 8.68 0 003.48-4.5.53.53 0 01.29-.19m-1.28-3.41c-.16 0-.21-.15-.29-.24-.09-.28.19-.38.31-.56a.21.21 0 01.2.08 1.16 1.16 0 01-.22.72m-.31-2.89a.32.32 0 01.41-.12c.23.06.27.31.4.46s.16.34.06.52-.2.29-.35.36c-.34-.1-.4-.51-.63-.75a.8.8 0 01.11-.47m.07 1.72c-.14.15-.23.37-.48.32-.22-.28-.55-.56-.51-.92.16-.17.43-.74.65-.28.13.29.47.54.34.88m-.31 2.28a.24.24 0 01-.24.05c-.15-.2-.46-.37-.38-.65s.31-.54.58-.49l.29.43c0 .27-.13.45-.25.66m0 .5a.12.12 0 010 .09h-.37a.18.18 0 01.1-.22c.12 0 .29 0 .31.12m-.35-5a.43.43 0 01.3.06c0 .08-.05.18-.12.22s-.15-.08-.22-.15 0-.1 0-.13m-1.07 0a.35.35 0 01.43-.11 1.79 1.79 0 01.46.66c0 .3-.29.46-.43.68s-.3-.19-.42-.32 0-.62 0-.91m.06 1.65a.09.09 0 010 .05v-.11c.06 0 0 0 .07.06m.22.5h.18c.2.31.64.58.45 1-.16.14-.31.46-.54.42a1.46 1.46 0 01-.42-.51 1.05 1.05 0 01.33-.91m.18 2.5a.41.41 0 01-.27-.05c.06-.08.09-.15.18-.18a.22.22 0 01.26.12c0 .15-.13.06-.17.11m.11.38a.16.16 0 010 .09h-.36v-.05a.16.16 0 01.11-.2.28.28 0 01.31.15m-.47-1.09s0 .11-.07.14h-.07v-.26c0-.05.09.07.11.12m-.36 1.2h-.17a.26.26 0 01-.13-.08.15.15 0 01.1-.22.29.29 0 01.27.11.12.12 0 01-.07.19m-.75-3.32a.27.27 0 01.2-.06.26.26 0 01.19.06c.21.1.23.3.26.5a.49.49 0 01-.9 0c0-.2 0-.4.25-.5m-.06-1.42A.58.58 0 0153 13a.63.63 0 01.26.23.42.42 0 010 .39.93.93 0 01-.28.28 1 1 0 01-.29-.28.42.42 0 010-.39m0 3.14c.06-.12.18-.11.29-.12s.22 0 .28.12a.54.54 0 01.12.5.46.46 0 01-.4.27.48.48 0 01-.41-.27.57.57 0 01.12-.5m-.55-6c-.13-.15 0-.37-.06-.54.2-.16.38.09.57.15a.15.15 0 00.19-.1c0-.26-.26-.47-.1-.7h.47c.16.23-.13.44-.1.7a.17.17 0 00.2.1c.19-.06.37-.31.57-.15 0 .17.06.39-.07.54l-.56-.14c-.2.13 0 .42-.1.56h-.35c-.13-.14.1-.43-.09-.56l-.57.14m.39 1c.08-.18.25-.18.42-.17.17 0 .34 0 .42.17a.68.68 0 01.08.51.47.47 0 01-.31.3.4.4 0 01-.19 0 .6.6 0 01-.19 0 .45.45 0 01-.3-.3.73.73 0 01.07-.51m-.17 6.43a.26.26 0 01.26-.11.15.15 0 01.1.22.28.28 0 01-.26.09c-.09 0-.18-.1-.1-.2m-.16-.87h-.1c-.07 0 0-.1-.07-.14a.18.18 0 01.12-.12c.07.05.05.18 0 .26m-.41-.51c-.22 0-.37-.28-.53-.42-.19-.4.25-.67.45-1h.17a1.06 1.06 0 01.34.91 1.61 1.61 0 01-.43.51m.11 1.31a.16.16 0 01.11.2c0 .14-.22.07-.33.08s-.08-.08-.09-.13a.29.29 0 01.31-.15m-.36-.34a.21.21 0 01.26-.12c.08 0 .12.1.17.18a.38.38 0 01-.26.05c0-.05-.22 0-.17-.11m-.55 0a.24.24 0 01-.24-.05c-.11-.21-.29-.39-.24-.66l.28-.43c.28-.05.41.32.59.49s-.24.45-.39.65m.17.55c-.07.09-.19.05-.29.06s-.13-.09-.13-.16.19-.12.31-.12a.18.18 0 01.11.22m.94-3.46s0-.09.08-.06v.11a.09.09 0 010-.05m-.37-1.76a.35.35 0 01.43.11c0 .29.14.65 0 .91s-.21.41-.41.32-.47-.38-.43-.68a1.77 1.77 0 01.45-.66m-.64.09v.13c0 .04-.09.18-.21.15s-.18-.14-.13-.22a.43.43 0 01.3-.06m.34 1.65c0 .36-.29.64-.51.92-.25.05-.33-.17-.48-.32-.13-.34.21-.59.35-.88.21-.46.48.11.64.28m-1.78-.28c-.1-.18 0-.35.06-.52s.17-.4.4-.46a.33.33 0 01.41.12.79.79 0 01.1.47c-.22.24-.28.65-.62.75-.16-.07-.23-.24-.35-.36m.55 2a1.16 1.16 0 01-.22-.72.2.2 0 01.19-.08c.13.18.41.28.32.56-.07.09-.13.27-.29.24m-3.81 2.75l7.11-.09h2.27c.61 1.46-.38 2.76-1.39 3.77a12.18 12.18 0 01-1.92 1.46h-.15a6.13 6.13 0 01.92-1.73.22.22 0 00-.14-.26c-.92-.08-1.12.92-1.69 1.3-.74.56-1.5 1.07-2.25 1.58-.09-.39.38-.67.53-1 .6-.76 1.43-1.21 2-2a.36.36 0 00-.22-.33c-.39.1-.66.5-1 .75A7 7 0 0148 24l-.1-.08a4.76 4.76 0 013.2-2.73.37.37 0 00-.15-.41c-1.59.35-3.63 1.21-5.17.14 0-.11.08-.11.11-.16a50.93 50.93 0 015.1-.27 14.62 14.62 0 013 1.15 1.25 1.25 0 001.1-.26c.3-.36.71-.7.58-1.16a1.7 1.7 0 00-1.26-.37c-2.48-.2-5.22.32-7.48-.42-.22-.09-.5-.25-.55-.51h.06zm6.48 1.62a1.06 1.06 0 01.92 0c0 .16 0 .51-.34.34s-.41-.18-.58-.36m1.87.47a.72.72 0 01.07-.44c.08 0 .17 0 .22.07a.54.54 0 01-.21.37zm-8.5-3.89a15.59 15.59 0 01-3.11-2.91c.22-.33.52.16.66.35.82.86 1.62 1.75 2.45 2.56m-2.43-4.49a.37.37 0 01-.36.08c-.23-.31-.69-.56-.58-1 .27-.26.46-.8.87-.73l.43.64c.07.4-.19.67-.36 1m0 .75c0 .11-.11.19-.19.23s-.33.05-.43-.09a.25.25 0 01.16-.32c.17 0 .43 0 .46.18m.8-2.43c-.23 0-.32-.24-.43-.37-.12-.42.29-.56.48-.82a.27.27 0 01.28.11 1.73 1.73 0 01-.38 1.15m-.47-4.31a.47.47 0 01.62-.17c.33.07.4.45.59.68 0 .25.24.51.09.77s-.28.44-.52.54c-.5-.16-.6-.77-.93-1.13a1.22 1.22 0 01.15-.69m.11 2.6c-.21.22-.34.55-.71.47-.33-.43-.82-.84-.76-1.38.24-.25.64-1.09 1-.41.2.43.71.8.51 1.32m-1-3.36a.63.63 0 01.45.09c.07.12-.08.27-.19.33s-.23-.12-.33-.23 0-.15.07-.19m-1.6 0a.55.55 0 01.65-.17 2.72 2.72 0 01.67 1c.06.44-.43.68-.64 1-.31.13-.45-.29-.61-.48-.27-.38-.1-.91-.07-1.35m.09 2.47v.06h-.06v-.18c.09 0 .07.05.11.1m.33.73h.26c.29.46.95.86.68 1.45-.25.22-.47.68-.8.63a2.15 2.15 0 01-.64-.77 1.58 1.58 0 01.5-1.35m.26 3.74a.71.71 0 01-.4-.09c.09-.11.14-.22.26-.26a.32.32 0 01.39.18c.08.21-.19.08-.25.17m.17.55c0 .08 0 .18-.13.19s-.42.09-.49-.11a.24.24 0 01.16-.3.42.42 0 01.46.22m-.86-1.8c.08 0 .13.11.15.19s0 .16-.1.19h-.09c0-.11-.07-.3 0-.38m-.21 2.49h.73a39.59 39.59 0 003.46 3.29 15.27 15.27 0 01-4.24-3.12l.05-.15zm-.22-.51a.44.44 0 01-.4-.12.24.24 0 01.16-.34.43.43 0 01.39.16c.11.15 0 .27-.15.3m-2-11.41c-.18-.22-.06-.56-.09-.81.3-.24.56.14.85.23a.23.23 0 00.28-.16c.06-.37-.38-.7-.14-1a1.58 1.58 0 01.31 0h.39c.23.33-.21.66-.15 1a.24.24 0 00.29.16c.28-.09.54-.47.85-.23 0 .25.09.59-.1.81-.28-.06-.57-.14-.84-.22-.29.2 0 .63-.14.85a1.09 1.09 0 00-.26 0 1.13 1.13 0 00-.26 0c-.2-.22.15-.65-.15-.85-.27.08-.56.16-.84.22m.58 1.53c.12-.26.38-.26.63-.25h.07c.26 0 .51 0 .63.25a1 1 0 01.11.75.65.65 0 01-.45.46.57.57 0 01-.29 0h-.07a.66.66 0 01-.28 0 .68.68 0 01-.46-.46 1.08 1.08 0 01.11-.75m-.26 9.58a.44.44 0 01.39-.16.24.24 0 01.16.34.43.43 0 01-.39.12c-.13 0-.27-.15-.16-.3m0 1a15 15 0 01-4.24 3.12 36.94 36.94 0 003.46-3.29h.74v.15zm-2-1.53a.37.37 0 01-.36-.08c-.17-.31-.44-.58-.37-1l.37-.63c.41-.07.61.47.87.73.12.41-.35.66-.57 1m.24.81c-.09.14-.27.08-.42.09s-.2-.12-.19-.23.28-.19.46-.18a.26.26 0 01.15.32m.83-.67c-.07-.09-.33 0-.26-.17a.32.32 0 01.4-.18c.12 0 .17.15.25.26a.66.66 0 01-.39.09m.44.63c-.07.2-.32.1-.49.11s-.11-.11-.12-.19a.4.4 0 01.45-.22.23.23 0 01.16.3m.29-1.5h-.1c-.11 0 0-.14-.1-.19s.08-.18.17-.19.07.27 0 .38m-.61-.75c-.34 0-.56-.41-.8-.63-.27-.59.38-1 .67-1.45h.26a1.55 1.55 0 01.5 1.35 2 2 0 01-.63.77m.47-2.85c0-.05 0-.14.11-.1v.16h-.04a.08.08 0 010-.06m-.6-2.7a.53.53 0 01.64.17c0 .44.2 1-.06 1.35-.17.19-.31.61-.62.48-.21-.33-.69-.57-.63-1a2.6 2.6 0 01.67-1m-1 .14c.08 0 .06.13.06.19s-.14.27-.33.23-.25-.21-.18-.33a.62.62 0 01.45-.09m.51 2.45c.06.54-.44.95-.77 1.38-.36.08-.49-.25-.71-.47-.19-.52.31-.89.51-1.32.32-.68.73.16 1 .41m-2.64-.41c-.15-.26 0-.52.08-.77.2-.23.26-.61.6-.68a.47.47 0 01.62.17 1.14 1.14 0 01.14.69c-.32.36-.42 1-.92 1.13-.24-.1-.34-.37-.52-.54m.83 3A1.67 1.67 0 0136 9.87a.27.27 0 01.28-.11c.19.26.6.4.48.82-.11.13-.2.4-.43.37m.82 3.61c.15-.19.44-.68.67-.35a15.63 15.63 0 01-3.12 2.91c.84-.81 1.63-1.7 2.45-2.56m-6.38 1.61c-.16 0-.21-.15-.29-.24-.08-.28.19-.38.32-.56a.2.2 0 01.19.08 1.16 1.16 0 01-.22.72m-.32-2.89a.34.34 0 01.42-.12c.23.06.27.31.4.46s.16.34.05.52-.19.29-.35.36c-.33-.1-.4-.51-.62-.75a.79.79 0 01.1-.47m.08 1.72c-.14.15-.23.37-.48.32-.22-.28-.55-.56-.51-.92.16-.17.43-.74.65-.28.13.29.47.54.34.88m-.31 2.28a.24.24 0 01-.24.05c-.15-.2-.46-.37-.38-.65s.31-.54.58-.49l.29.43c.05.27-.13.45-.25.66m0 .5c0 .07-.09.13-.14.16s-.21 0-.28-.06a.17.17 0 01.1-.22c.12 0 .29 0 .32.12m-.36-5a.43.43 0 01.3.06c.05.08-.05.18-.12.22s-.16-.08-.22-.15 0-.1 0-.13m-1.07 0a.36.36 0 01.44-.11 1.74 1.74 0 01.44.66c0 .3-.28.46-.42.68s-.31-.19-.42-.32-.06-.62 0-.91m.06 1.65a.09.09 0 010 .05v-.11c.07 0 .05 0 .08.06m.23.5h.17c.19.31.63.58.45 1-.16.14-.31.46-.54.42a1.46 1.46 0 01-.42-.51 1 1 0 01.34-.91m.17 2.5a.4.4 0 01-.27-.05c.05-.08.09-.15.17-.18a.21.21 0 01.26.12c.05.15-.12.06-.16.11m.11.38a.15.15 0 01-.09.13c-.11 0-.28.06-.33-.08a.17.17 0 01.11-.2.28.28 0 01.31.15m-.58-1.21c.05 0 .09.07.11.12s0 .11-.07.14h-.07c0-.08-.05-.21 0-.26m-.29 1.33a.28.28 0 01-.26-.09.15.15 0 01.1-.22.29.29 0 01.27.11c.07.1 0 .18-.11.2m-.71-3.33a.27.27 0 01.2-.06.26.26 0 01.19.06c.21.1.23.3.26.5a.53.53 0 01-.45.29.52.52 0 01-.45-.29c0-.2 0-.4.25-.5m-.06-1.42A.58.58 0 0128 13a.63.63 0 01.26.23c0 .12.1.27 0 .39a.93.93 0 01-.28.28.86.86 0 01-.29-.28.42.42 0 010-.39m0 3.14c.06-.12.18-.11.29-.12s.22 0 .28.12a.57.57 0 01.13.5.49.49 0 01-.41.27.47.47 0 01-.41-.27.57.57 0 01.12-.5m-.55-6c-.12-.15 0-.37-.06-.54.2-.16.37.09.56.15a.15.15 0 00.19-.1c0-.26-.25-.47-.09-.7h.47c.16.23-.14.44-.1.7a.16.16 0 00.19.1c.2-.06.37-.31.58-.15 0 .17.06.39-.07.54l-.57-.14c-.19.13 0 .42-.09.56h-.35c-.13-.14.1-.43-.1-.56l-.56.14m.39 1c.08-.18.25-.18.42-.17H28c.17 0 .34 0 .42.17a.64.64 0 01.07.51.45.45 0 01-.3.3.4.4 0 01-.19 0 .6.6 0 01-.19 0 .45.45 0 01-.3-.3.73.73 0 01.07-.51m-.18 6.43a.29.29 0 01.27-.11.15.15 0 01.1.22.22.22 0 01-.13.08h-.17a.12.12 0 01-.07-.19m-.56-1.38c-.23 0-.38-.28-.54-.42-.18-.4.26-.67.46-1h.17a1.05 1.05 0 01.33.91 1.35 1.35 0 01-.42.51m.41.51h-.07c-.07 0 0-.1-.07-.14s.06-.11.11-.12.06.18 0 .26m-.3.8a.16.16 0 01.11.2v.05h-.36a.32.32 0 010-.09.28.28 0 01.31-.15m-.37-.34a.23.23 0 01.27-.12c.08 0 .12.1.17.18a.38.38 0 01-.26.05c-.05-.05-.22 0-.18-.11m-.54 0a.24.24 0 01-.24-.05c-.11-.21-.3-.39-.24-.66l.28-.43c.27-.05.41.32.59.49s-.24.45-.39.65m.16.55h-.43a.12.12 0 010-.09c0-.15.19-.12.31-.12a.17.17 0 01.1.22m1-3.46s0-.09.07-.06v.11h-.05a.08.08 0 010-.05m-.38-1.76a.35.35 0 01.43.11c0 .29.13.65 0 .91s-.21.41-.41.32-.47-.38-.43-.68a1.66 1.66 0 01.45-.66m-.64.09c.05 0 0 .09 0 .13s-.09.18-.22.15-.17-.14-.12-.22a.43.43 0 01.3-.06m.34 1.65c0 .36-.29.64-.51.92-.25.05-.33-.17-.48-.32-.13-.34.21-.59.34-.88.22-.46.49.11.65.28m-1.78-.28c-.1-.18 0-.35 0-.52s.18-.4.4-.46a.34.34 0 01.42.12.79.79 0 01.1.47c-.22.24-.28.65-.62.75-.17-.07-.23-.24-.35-.36m.55 2a1.22 1.22 0 01-.22-.72.21.21 0 01.2-.08c.12.18.4.28.31.56-.07.09-.13.27-.29.24m-9.29-3.31c-.07 1.39.92 2.45.64 3.84a8.23 8.23 0 00-1.23 3.2 1 1 0 010 .52A3.45 3.45 0 0114 18.78c-.46-1.18 1.14-1.48 1-2.58 0-.23.32-.38.22-.63h-.11a3.2 3.2 0 01-2.36.59 2.18 2.18 0 00-1.41 1.18c-.2 0-.25-.28-.33-.45-.29-2.16 2.32-.42 3.12-1.7.64-1.11-.27-2.22-.76-3.21a.52.52 0 010-.55c1-.71 2.32-.68 3.5-1a3.46 3.46 0 00-1 2.4m3.23-3.32c-2 .39-4.17.48-6 1.36-.43.17-.4.61-.45 1 .31 1 1.57 1.65 1.27 2.88-.59.65-1.49.43-2.33.4-.2 0-.37.2-.58.21.32-.75 1.35-.35 2.05-.44l.27-.18c.57-1.32-1.74-2-1.15-3.4 1-2.68 4.08-1.46 6.34-1.86l.21-.19c.05-.1 0-.15-.1-.22-.52-.06-1.06.07-1.62 0L17 9a3.64 3.64 0 012-1.62c-.14.2-.42.3-.56.51l.11.11a6.83 6.83 0 011.18-.4 1 1 0 01-.45.18c-.18.21-.52.33-.59.62 0 .12.11.14.18.15a1.89 1.89 0 011.4-.42v.08a5.38 5.38 0 00-1.27.56.21.21 0 00.06.34c.44-.07.81-.35 1.25-.39.13-.06.36 0 .37.13-.49.28-1.36 0-1.56.66m.34 6.35c-1.19-1.46-.05-3.29.26-4.8a3 3 0 00.3-.54c0 .35-.37.71-.15 1.06.38-.08.29-.59.52-.79 0 .34-.28.57-.23.94 0 .08.11.25.25.18.19-.31.29-.71.45-1-.07.41-.16.82-.24 1.21l.15.16c.43-.27.38-.85.63-1.17-.35 1.86-1.62 3.58-.86 5.65a3.3 3.3 0 01-1.08-.88m2.18 1.37a2.67 2.67 0 01-.64-2.47c.15-1.61 1.14-2.94 1.12-4.6-.41-.9-1.54-.42-2.19-.61.81-.07 1.75-.37 2.44.18a.86.86 0 01.4.66c-.64 1.92-1.5 3.8-1.46 6 .5 1.13 1.79 1.34 2.82 1.71a5.42 5.42 0 01-2.46-.86m1.93 2.45a.49.49 0 01.37-.1.53.53 0 01.29.19 8.63 8.63 0 003.48 4.5c.4.45 1.28.53 1.29 1.2a14.85 14.85 0 01-5.25-5.08c-.08-.23-.4-.47-.18-.71m-.6 3.45c-1-.25-2.35-.5-3.09.54l-.06-.08a3.13 3.13 0 01.59-2.08 2.57 2.57 0 012.28-1.14c1.1 1.23 2.16 2.67 3.41 3.84-.15.11-.29-.08-.47-.07-.88-.34-1.74-.72-2.66-1m-3.25 4a.9.9 0 01-.55-.56c2 .4 3.39-1.41 5.34-1.45v.12c-1.45 1-2.88 2.25-4.76 1.89m6-.81c-.87 0-1.31.94-1.64 1.59H24a1.65 1.65 0 01.25-1.25 2.89 2.89 0 011.52-1.07 4 4 0 012.84.75c.18.08.44.18.51.37-1.18.2-2.13-.58-3.4-.39m2.12-4.22a.21.21 0 00-.14.26 6.4 6.4 0 01.92 1.73h-.16a11.67 11.67 0 01-1.91-1.46c-1-1-2-2.31-1.4-3.77h2.28l7.11.09h.06c0 .26-.33.42-.56.51-2.26.74-5 .22-7.47.42a1.68 1.68 0 00-1.26.37c-.13.46.28.8.58 1.16a1.24 1.24 0 001.09.26 14.71 14.71 0 013-1.15 50.93 50.93 0 015.1.27c0 .05.15.05.1.16-1.53 1.07-3.58.21-5.17-.14-.16.09-.16.26-.15.41A4.77 4.77 0 0133.07 24H33a7.14 7.14 0 01-2.54-1.67c-.31-.25-.58-.65-1-.75a.38.38 0 00-.22.33c.56.77 1.39 1.22 2 2 .15.36.62.64.54 1-.76-.51-1.51-1-2.25-1.58-.57-.41-.77-1.42-1.63-1.27m.21-1.57c-.17.18-.4.19-.58.36s-.31-.18-.33-.34a1 1 0 01.91 0M26.2 21h-.07a.51.51 0 01-.21-.37c0-.09.14-.07.21-.07a.72.72 0 01.07.44m6.3 6.88c-1.18-.86-3.21-1.65-2.95-3.47h.08a16.29 16.29 0 002.87 3.36v.11zm-1.24-2.48a6.92 6.92 0 011.22.83c.53.15.19-.5.35-.65a9.63 9.63 0 011 1.88v.22a6.27 6.27 0 01-2.55-2.28m-.9 11.22c.09-.17.4-.11.6-.18A4.46 4.46 0 0034.07 34a1.57 1.57 0 01.14.82 7.09 7.09 0 01-1.69 2.32 3.79 3.79 0 01-2.16-.52m-3.44 1.89c.38.19.74.41 1.12.58 2.38.79 4.5-.68 6-2.59a7.47 7.47 0 01-1.83 2.79l-1.43.06c-.07.26.35 1.65-.59 1.85a2.1 2.1 0 01-1.72-.27 3.13 3.13 0 01-1.53-2.42m-4.43 26.24c.13-.41.28-.91.71-1.09 0 .28-.3.56 0 .81a4.8 4.8 0 00.16 3.2.14.14 0 00.23 0 4.54 4.54 0 010-2.68c.1-.14.09-.37.3-.4a2.31 2.31 0 01-.16.7 4.6 4.6 0 00.38 3.08.26.26 0 00.37 0v.26a7.72 7.72 0 00-.17 1.68 1.71 1.71 0 01-1.23.82l.12-.21c1-2.25-1-3.91-.7-6.12m-.22 3.82c-.2-.08-.26.17-.4.26a1.36 1.36 0 01-1.36.08c-.17-.13-.39-.32-.33-.53.32.08.64.29 1 .17a1 1 0 00.45-.62c.12-1.36-.59-2.62-.14-4 .53-1.7 2.36-2.39 3.95-2.53l.05.11-.71.54a4.46 4.46 0 00-2.87 2.41c-.29 1.74.63 3.12.83 4.71a1.37 1.37 0 01-1.29.5c.22-.26.59-.38.82-.69.11-.12.14-.26 0-.37m6.5-15.46h.2c.24.18.61 0 .81.2a11.73 11.73 0 01-.52 2.82s.07.11.13.08a3.55 3.55 0 00.77-1.93c.21-.61-.08-1.44.44-1.87l.08.08-.05 3.09c-.36.34-.23.91-.58 1.27A4.19 4.19 0 0128 58.5v-.22a10.54 10.54 0 00.78-5.17m.06-5c.09-.13.2-.36.4-.31l.76 1.55a6.57 6.57 0 01.65 1.93 8.29 8.29 0 01-1.19 1.18 2.8 2.8 0 01-1.82-.84 22.13 22.13 0 01-.25-2.57c.29.13.56-.19.78-.21l.36 1a2.23 2.23 0 00.27.92.35.35 0 00.44-.13 10.81 10.81 0 00-.39-2.57m1-.69c.27 0 .67-.1.84.17v1.65l-.08.06a7.41 7.41 0 01-.73-1.88m.74 10.11l.05.4a4.74 4.74 0 01-2 1.62v.12c.7.42 1.32-.24 1.92-.52a3.11 3.11 0 01.09 1 3.36 3.36 0 01-1.45.56 2.89 2.89 0 01-2-.22c.1-.18.29-.25.43-.39.75-1.18 2-1.57 2.92-2.59m-3.12 3.95c-.48.28-.93.67-1.44.92-.15.16-.43.23-.45.47s.17.17.29.16c.61-.31 1.21-.68 1.85-.93a2.8 2.8 0 01-.6 1.06 8.88 8.88 0 01-3.23.71v-.11a7 7 0 013.29-2.47c.11.07.38 0 .29.19m-3.06 5.95h-.07a4.8 4.8 0 01.15-2.76.44.44 0 01.55-.17c0 .32-.24.59-.3.91-.05.14-.08.35 0 .44.36 0 .32-.48.48-.72.27-.44.66-1 1.23-.93v.14c-.81 1-1.09 2.18-2.07 3.09m.49 1.92l.33-.87c.17-.27.43-.69.79-.61a4.9 4.9 0 00-.44 1.56c0 .11.12.27.26.22s.13-.34.19-.5a2.33 2.33 0 01.49-1 3 3 0 01-1.11 3.2c-.62-.39-.62-1.26-.51-2m1.95 1.21H27a1.34 1.34 0 01.18.28 5.33 5.33 0 01-1.1.53c.25-.28.51-.55.77-.81m.27-2.27a1.41 1.41 0 01.15-.88l.07 1.66.18.24c.07.05.21.1.25 0-.13-.49 0-1.1-.07-1.62l.07-.11a2.92 2.92 0 01.13 1 5.27 5.27 0 01.26 2.49c-.05.06-.05.17-.16.19a3.68 3.68 0 01-.89-2.92M26.27 67c-.26.07-.55.31-.8.17a5.93 5.93 0 01.76-1.56c.49-.45.73-1.46 1.6-1.29.06 0 .14 0 .1.14l-1 1.16c-.05.07-.08.24 0 .29.57-.25.89-.83 1.36-1.22h.16c-.22 1-1.38 1.77-2.21 2.3m1.42-3.39a3.08 3.08 0 01.62-1.35 2 2 0 011.85-1c-.42.42-.95.87-1.43 1.31v.13c.06.1.15.25.28.19.58-.45 1.16-.88 1.75-1.25a1 1 0 01.2.6 4.7 4.7 0 01-3.24 1.36m-10-34.43c0-.1.05-.35.25-.25 1.14 1.27 2.41 2.35 3.6 3.52 1.36 1.32 3.29 2.84 2.42 4.92-.64.82-1.81 1.44-2.1 2.46-.36 1.43.82 2.51 1.84 3.38 2 1.28 4.35.11 6-1.12.32 0 .66-.21.95-.09-.08.41.19 1-.28 1.25-.1.23.13.4.24.59v1.88c-.18.27-.64 0-.87.31.08.45.84 0 .9.53 0 0-.05.15-.15.11-1.15.34-1.34-.58-1.66-1.35a1.83 1.83 0 00-.4-.68c-.12-.08-.27 0-.37.12a2.12 2.12 0 00.16.56c.15.36.37.7.52 1.06.29.8-.6 1.22-1.05 1.68-.53.14-.85-.39-1.27-.58-.54-.52-.31-1.4-.33-2.16v-.09l-.09-.15c-.16 0-.31 0-.4.15v.13L25.46 47c-.22.42-.74.2-1.05.46s-.82-.05-1.09-.43c-.53-.54-.24-1.12 0-1.69a3.06 3.06 0 00.28-.72l-.11-.18a.33.33 0 00-.44.13c-.12.25-.22.52-.35.77a3.72 3.72 0 01-.49.75 1.69 1.69 0 01-1.71.08 2.74 2.74 0 00-.31-.83c-.15-.36-.22-.71.26-1 .35-.44.93-.78 1.05-1.33a.37.37 0 00-.26-.16l-1.54 1.47a3.9 3.9 0 01-1.48-.27c-.54-.19-.06-.78-.14-1.18.19-1.19 1.66-1 2.46-1.61 0-.14 0-.26-.15-.29-.82 0-1.51.51-2.34.36-.31-.57-1.18-1-1-1.68a7 7 0 011.23-1.36l1.32.16a1.8 1.8 0 001 0c0-.12.08-.2 0-.29-.62-.27-1.34-.27-2-.48s-.47-.82-.71-1.22c-.25-.92.86-.83 1.33-1.19.64-.18 1.11.5 1.68.69a2.91 2.91 0 00.87.46.21.21 0 00.15-.26c-1.59-2.2-5-3.86-4.12-6.94M7.09 50.56a.74.74 0 00.29-.36c.34-.37.67-1.42-.19-1.53a.54.54 0 00.13-.37.56.56 0 000-.44c1.37-.74 2.78-1.41 4.17-2.17a6.52 6.52 0 01.16.74c-1.14 1-2.35 1.75-3.48 2.73 0 .23.24.35.42.42 1.22-.9 2.4-1.87 3.65-2.69a1.07 1.07 0 011 .26c-1.62 1.53-3.4 2.87-5.12 4.32a3.57 3.57 0 01-1.22 0 1.71 1.71 0 000-.39L7 51a1.43 1.43 0 00.87.15V51a3.87 3.87 0 00-.74-.43M4 45.38a.29.29 0 00-.26.1 6.16 6.16 0 01-.17.81h-.06a.63.63 0 00-.38 0 3.87 3.87 0 00.47-.93v-.07c.26-.46.77-.4 1.14-.61 1.85-.63 3.76-1 5.6-1.6.39-.22.61.24.84.43l-.11.1c-1.47.54-2.87 1.26-4.36 1.75l-.26.08c-.11.12-.35.15-.32.4a.52.52 0 00-.47-.06.38.38 0 00-.17.08.69.69 0 00-.58 0 .8.8 0 00-.77.4.67.67 0 00-.18.07c0-.33.22-.61 0-.93m9.37-9.67c.36.28.87.21 1.28.39.82.38 1.81.32 2.58.81 0 .21.21.41.14.62-2-.32-4-.75-6-1.2l-.24-.23c-.13-.6-1-1.15-.49-1.77.59-.35 1.07-1 1.82-.92 1.42.67 2.89 1.2 4.31 1.87.42.14.15.46.1.7-1.14-.19-2.22-.56-3.35-.79a.36.36 0 00-.19.52m-1.46 1.44c1.77.26 3.49.61 5.22.93l.08.08c-.07.18-.17.41-.38.47-1.34 0-2.59-.15-3.87-.22l-.13.1a.44.44 0 00.15.55c1.16.06 2.13.18 3.29.22l.1.07c0 .14-.11.25-.18.37-1.51.26-3.15.25-4.62.47A6.13 6.13 0 0110 38.77c.08-.32.39-.55.6-.8.43-.29.73-.91 1.29-.82M17 47.34c.76-.58 1.37-1.37 2.08-2l.07-.06.22-.05.1.11a.41.41 0 01.08.34 84.17 84.17 0 01-2.21 3.13l-.23.1c-.67-.07-1.52.14-2-.37a4.37 4.37 0 01-.11-1.73 15.51 15.51 0 011.77-1.47l1-.69h.13c.18.12.54.08.57.35s-.2.25-.3.37a17.15 17.15 0 00-1.41 1.55l-.05.21a.38.38 0 00.41.24m2.49 1.76c.57-.61.83-1.37 1.36-2a1.1 1.1 0 01.76.06c-.42 1.11-1.15 2.09-1.55 3.2l-.24.26a2.57 2.57 0 01-1.67-.26 3.61 3.61 0 01-.42-1.22c.55-.74 1-1.53 1.61-2.25.16-.16.21-.49.48-.5 0 .19.3.28.22.51A11 11 0 0019 49c.14.09.32.22.5.15m-2.1-6.44c-.95.59-1.93 1.08-2.86 1.71-.15.15 0 .35.1.49a1.24 1.24 0 00.74-.25c.66-.22 1.19-.86 1.85-1a2 2 0 010 .55l-1.43 1.13-1.44 1.14a2.59 2.59 0 01-1.24-.28c-.27-.13-.65-.05-.8-.38l.09-.48a6 6 0 01.41-1.34 46.66 46.66 0 014.58-1.57c.12.09 0 .18 0 .29m-.17-.88c-.79.39-1.64.59-2.44.94-.92 0-1.73 1.13-2.64.39-.31-.3-.91-.41-.94-.93a15.18 15.18 0 01.72-1.46c1.43-.21 2.9-.34 4.33-.5.12.14.38.31.33.56a26.67 26.67 0 01-3 .75.35.35 0 00-.14.37c0 .14.11.26.28.25 1-.18 2-.44 3-.68h.45c0 .1.18.19.07.31M6.64 46.11l1.85-.77c1.06-.43 2.13-.83 3.2-1.22H12c-.05.23 0 .5-.3.65l-1 .56-1.3.71-2.2 1.17s0-.07-.07-.07a.56.56 0 00-.22-.33.51.51 0 00-.12-.2.69.69 0 00-.27-.47.27.27 0 00.12 0m2.84 5.06c1.53-1.26 3-2.6 4.54-3.73a.7.7 0 01.2.66 44.44 44.44 0 01-3 3.69l-.08.25a.48.48 0 00.49.27c.88-1.05 1.68-2.13 2.65-3.15.06-.06.2-.19.26 0a.36.36 0 01.07.37c-1 1.53-1.9 3.09-2.91 4.61l-.52.25c-.78-.11-1.69.53-2.27-.19a12.21 12.21 0 01-.29-2c.06-.45.6-.72.86-1m5.89-1.55a7.33 7.33 0 011.13.06c.12 0 .06.16.07.25-.59 1.37-1.37 2.65-2 4 0 .14-.17.38 0 .49s.44.18.58-.06l1.06-2.34a12.18 12.18 0 011-1.85c.3.22.24.73.61 1-.32 1.23-.92 2.41-1.35 3.64a6.89 6.89 0 01-.76 1.57 8.7 8.7 0 01-2.29.62 4.17 4.17 0 01-.5-.67c-.18-.6-.79-1-.66-1.74a38.43 38.43 0 013-5m3.11 1.94l.16-.19c.26 0 .7-.25.83.05-.4 1.4-.7 2.85-1 4.28l.11.11c.15 0 .33.14.44 0 .28-1.36.67-2.67 1-4h.1c.29.38.6.77.9 1.11-.21 1.41-.39 2.94-.66 4.37-.44.16-.82.5-1.26.66s-1 .54-1.39.06-1-1-1-1.7c.51-1.63 1.2-3.18 1.79-4.74m2-.75a37.14 37.14 0 011.66-3.49c.06-.12.16-.32.34-.29s.17.19.25.3a9.51 9.51 0 01-.64 2.28c0 .22-.19.49 0 .67a.43.43 0 00.63-.13 19.15 19.15 0 01.69-2.06 1.9 1.9 0 01.62.31c0 1.08-.39 2-.42 3.05l-.13.21c-.67.18-1.29.5-2 .62a2.78 2.78 0 01-1-1.48m1.05 2.85a.89.89 0 01.85-.87c.21 0 .42-.27.63-.1 0 1.07-.18 2-.18 3.09 0 .18-.19.41 0 .55s.38.12.47-.07l.14-1.91a8.13 8.13 0 01.21-1.6 2.71 2.71 0 01.95.81l-.07 3.71c-.36.64-1.09.78-1.6 1.26-.25.17-.52 0-.73-.16-.39-.38-.93-.72-1.14-1.23l.43-3.48zM24.09 52a19.06 19.06 0 01.38-3.51.44.44 0 01.38-.4c.1 0 .35-.11.36.08L25.16 51a.3.3 0 00.26.11.47.47 0 00.37-.21c.12-.91.14-1.86.2-2.8.27-.13.51.29.73.46.06 1.2.32 2.32.44 3.5a9.09 9.09 0 01-1.52 1.23h-.29L24.09 52zm-5.95-18.6v.06a25 25 0 01-3.14-1.7.38.38 0 00-.52.17.34.34 0 00.11.52c1.36.64 2.63 1.46 3.94 2.2 0 .27-.37.38-.58.46A26.5 26.5 0 0115.46 34c-1-.52-2.08-.9-3.06-1.52l-.66-1.69a.48.48 0 010-.55 7.68 7.68 0 012.26-.47 46.42 46.42 0 014.11 3.63m-5.27-8.87c0-.12.09-.32.22-.29 1.38 1.39 2.67 2.93 3.9 4.43 0 .11.1.35-.09.37-.63-.52-1.26-1.07-1.85-1.61a.3.3 0 00-.32.14c-.19.45.34.73.61 1 .43.83 2 1.14 1.45 2.34a23.11 23.11 0 01-2-1.62 4.89 4.89 0 01-1.93-4.77m-8.68-9.88c.2-.32.14-1 .75-.9a13 13 0 011.68 2.13l5.66 7.26v.47c-.09.17-.08.49-.3.51-1.15-1.3-2.5-2.4-3.52-3.77a6.54 6.54 0 01-1.32-2.23c0-.23-.29-.13-.45-.15s-.14.34-.16.55C7.56 21.12 10.18 23 12 25.25a10.52 10.52 0 00.29 2.13c.07.23.31.46.25.66l-1.09-1c-2.35-2.27-5.21-4.58-6.83-7.36a7.24 7.24 0 01-.49-5.08M3.3 25.5c-1.52-1.24-1.62-3.25-1.19-5 .15-.23.27-.63.59-.65a15.78 15.78 0 011.77 1.6c2.77 2.5 5.36 5.15 8.11 7.6v.18h-.31c-1.86-1.41-3.75-2.84-5.63-4.23a4.64 4.64 0 01-1.23-1.6c0-.15-.22-.35-.39-.26a.85.85 0 00-.22.48 2.77 2.77 0 00.74 1.26c1.94 1.51 3.86 3.12 5.82 4.58v.1a.69.69 0 00-.33.23c-.23.16-.15.47-.27.68a22.15 22.15 0 01-3.47-2.18c-1.3-1-2.79-1.6-4-2.79m-1.74 3.42c0-.2-.12-.49.12-.63a19.69 19.69 0 013.12-.75c1.59 1 3.16 2 4.76 2.91.62.55 1.91.8 1.73 1.87a58.12 58.12 0 01-5.86-2.08c-.27.12-.3.46-.27.69a54.74 54.74 0 015.53 2.37v.11c-.29.33-.79.13-1.11 0-2.26-.58-4.57-1.14-6.74-1.9a20.09 20.09 0 01-1.28-2.59m-.63 4.47c.67-.42 1.22-1.13 2-1.14 2.23.45 4.29 1.29 6.49 1.77.43.16 0 .65.16 1-1.64-.2-3.25-.44-4.85-.74-.23.06-.17.32-.19.5.24.28.59.26.91.31 1.54.25 3.09.48 4.61.78.27.21.31.59.54.85l-.08.08c-2-.24-4-.41-6-.69-1-.32-2.45.3-2.87-1.09-.31-.51-1-.95-.75-1.62m-.2 5.17v-.32a9.56 9.56 0 011-1.16 1.38 1.38 0 011.55-.39c2.3.06 4.45.48 6.69.64l.1.11c-.34.28-.48.76-.93.9-1.57 0-3.16.15-4.76.15l-.11.1a.36.36 0 00.15.48c1.54 0 3.22-.1 4.83 0l.57.66-.08.08c-2.41.11-4.8.34-7.25.34a7.55 7.55 0 01-1.81-1.6m1 4.6a.5.5 0 01-.31-.63 4.46 4.46 0 011.77-1.68c2.41-.17 4.86-.22 7.27-.39a.9.9 0 01.47.3c0 .07.07.24-.05.28-1.87.36-3.7.81-5.63 1.06-.22 0-.12.27-.14.44a.28.28 0 00.29.14 40.9 40.9 0 015.14-.78.8.8 0 01-.19.55c-2.1.6-4.18 1.25-6.34 1.72h-.58l-1.67-1zM5 51.7c-.12.17-.34.07-.43 0l.06.2a.28.28 0 01-.26-.37l-.07-.22c.2.11.31-.2.43-.29s.08-.24.14-.36v-.09h-.29c-.37 0-.2.32.1.11l-.15.19.09.09a1.88 1.88 0 00-.7.67c.25.05.21.4-.16.2-.15 0-.48-.11-.39-.29-.27-.3-.61-.54-.91-.82l-.12-.05-.1-.18L2 50.4v-.14c-.39 0-.17 0-.18-.2-.15-.06-.2-.05-.14-.24-.17-.07-.16-.09-.08-.25l-.16-.2.13-.13c-.21-.08-.39-.14-.28-.41h.07c-.58-.87.89 0 1.14 0A2.05 2.05 0 013 49c.35.16 0 .3.15.42s.33 0 .4-.12l-.26-.19c.11 0 .28 0 .34-.12l-.22-.05c.39 0 .19-.6-.14-.5-.12.14-.4 0-.32.31l-.13-.11c-.12.16-.34.24-.4 0h.14c-.26.05 0-.41.09-.49-.36.08-.47 0-.54-.33-.21.1 0 .56.13.72a.19.19 0 01-.27-.2l-.15.18c-.11-.08-.17-.18 0-.27-.18-.22-.31-.18.06-.39.1-.22.22-.3.45-.18s0 .3.11.41l.24-.09c-.15-.09-.25-.22 0-.33l-.1-.16.13-.06.07.17c.23-.12.27 0 .28.25a.42.42 0 00.23-.39c0-.27-.59-.3 0-.58v-.16l.1-.05.09.13c.56-.26.26.18.42.42a.39.39 0 00.45 0c-.14-.1-.24-.23 0-.34l-.1-.16.13-.05.07.16c.23-.12.26 0 .27.25l.18-.2c0-.16-.29-.16-.26-.33s.18-.3.42-.25c.4-.16.29-.08.35.2.17-.08.21 0 .2.18H5.3c.13.08.12.24 0 .34V47c-.07-.12-.28-.59-.49-.47.22.24.21.38-.07.61.09 0 .64.06.44.23 0 0 .08 0 .1-.1.12.18-.07.31-.27.31v.16c-.14-.23-.25 0-.43.06-.27.2.05.71.33.43l-.12.2c.12 0 .24-.11.31-.19v.31c.15 0 .35-.08.34-.23s-.33 0-.24-.38a1.86 1.86 0 01.23-.5c.08-.21.32-1.89.69-1 .28.08.21.25.15.48h.18l.06.24c.18 0 .2 0 .15.24.19.06.15.09.11.25.15.14.21 0 0 .27l.1.08v.07l-.13.14c.09.14.06.13-.07.25v.15l-.19.13v.19l-.22.07c-.13.33 0 .09-.26.2-.15.28-.33.09-.4-.08h-.2c0 .15.11.26.2.35.65.06.25 0 .65.28l-.06.16a.62.62 0 01-.08.12v.07l.41-.1v-.14c-.22 0-.17-.46.13-.57l-.06-.17h.13l.11.1v.07c.55-.12.61.37.21.63-.07.09-.08.19-.17.29a9.06 9.06 0 01-1.06.23l-.1-.13h-.3c.36-.1.2-.43 0-.13l-.13.19v.06c.14 0 .27 0 .37.11s.46.07.49-.15l.13.19a.27.27 0 01.13.42l-.11-.16c0 .14 0 .37-.25.36a.37.37 0 01-.33.24c-.06.31-.14.22-.38.19a.41.41 0 01-.4.12m.52.4a.62.62 0 00.65-.32l.13-.07-.15.5c-.24.17-.5 0-.76-.05a.52.52 0 00.13-.06m1.29 1a1 1 0 00-.44-.19c-.34.15 0 .88-.59.63-.21-.08-.19-.29-.3-.44.35-.36.91-.33 1.28-.66.17 0 .23.11.31.21s0 .55-.26.45m.63-.82c.75.15.4 1.25.67 1.81.13.36.11.86.53 1a6.36 6.36 0 002.57 0c.32.07.39.42.58.64a16.3 16.3 0 001.1 1.89c.93.7 1.82-.34 2.78-.38.15 0 .31-.14.44 0a20.5 20.5 0 001.81 1.91c.6.09 1.1-.35 1.65-.52s.76-.52 1.22-.53c.51.44 1 .91 1.51 1.34.46.19.77-.18 1.16-.31.56-.5 1.29-.76 1.7-1.4l.14-3.53c.1-.2.36 0 .5-.13.79-.37 1.31-1.14 2.12-1.4a4.67 4.67 0 01.36 2.84 10.92 10.92 0 01-1.39 3.65v.18l.52.08c-.07.28-.36.39-.56.55-.37.36-1.2.08-1.27.71-.23.21-.58.17-.87.24a5.14 5.14 0 00-3.38 2.25 6.42 6.42 0 00-.15 4.22.89.89 0 01-.11.56c-.16.18-.32.1-.52.07a1.61 1.61 0 01-.62-.72c-.13-.06-.2.11-.22.18a2.27 2.27 0 00.91 2.3 2.5 2.5 0 002.17.11c.3.17 0 .54 0 .81s-.65.63-.22.87a2.27 2.27 0 001.94-.51 2.29 2.29 0 01.57.69c-1.64.65-3.44 1.6-5.18.53-.59-.47-.47-1.3-1.05-1.81a2.59 2.59 0 00-2.75.55c-.35.11-.3-.36-.55-.5a2.06 2.06 0 00-.88-2c-.77.14-.45-.86-1-1.15v-.58a3.59 3.59 0 00-1.25-2.2c-.9-1.79-1.68-3.63-2.6-5.4l-2.5-5.29v-.3c.42-.34.27-.92.16-1.36M15 74.2c-.35 0-.87.07-1.13-.22a9.9 9.9 0 01-.73-2.17c.2-.75 1.08-.65 1.6-1 .49 0 .58.59.78.91a7.08 7.08 0 00-.63 1.47 3.27 3.27 0 00.11 1M13.47 69c-.26.07-.49.32-.76.23-.46-.18-.37-.69-.37-1 .32-.21.93-.53 1.1.11a1.08 1.08 0 010 .69M7.27 55.21c.72 1.3 1.33 2.65 2 4C10.14 61.12 11.12 63 12 65a2 2 0 01-1 .36l-.18-.18c-1.1-3.35-2.52-6.58-3.56-10m4.37 12.35a3.75 3.75 0 01-.63-1.31c.37-.3.93-.31 1.33-.65.37 0 .41.47.61.7s.24.49.12.77a2.09 2.09 0 01-1.43.52m.62 3.07c0-.18-.13-.37 0-.55s.56-.2.8-.37a10.4 10.4 0 001.34-.66c.18 0 .32.18.36.3a.81.81 0 01-.15.88 6.92 6.92 0 01-1.81.84c-.22 0-.41-.25-.5-.44m.14 3.93c0-.21-.14-.41 0-.62s.56-.62.84-.33c.09.22-.28.3-.14.48.7.84 2 .44 2.75 1.18-.25.2.18.59-.23.66a3.49 3.49 0 01-3.19-1.37m.78 1.62a.46.46 0 01.68.08c.61.14 1.33 0 1.84.37.18 0 .3.17.41.24 0 .23.14.45 0 .68-.46.38-1-.1-1.54-.13-.55-.21-1.42-.47-1.42-1.24m3.32 3c-.8-.22-1.81-.37-2.19-1.24l.07-.07a2.61 2.61 0 01.95.28c.41 0 1-.24 1.28.22-.24.32.37.66-.11.81m.92-2.28a.77.77 0 01-.63.08c-.18-.22-.5-.35-.57-.66.36-.29 1.08-.12 1.12-.76.33.15.27.52.45.76a5.44 5.44 0 01.92 2.64 1.41 1.41 0 01-1.43.67c-.12-.06-.32-.17-.18-.34.29-.38 1.1-.21 1.1-.87-.28-.25-.59.29-.92 0a3 3 0 01-.51-.74c.42-.09.94-.2 1.13-.66-.1-.21-.32-.16-.48-.12m-.87-2.52c.06-.09.17-.15.24-.08a3.06 3.06 0 01.52 1.13c-.26 0-.67.19-.83-.13s.26-.12.29-.3-.39-.36-.22-.62m2.81 7.53a.91.91 0 01-.87-.08c-.11-.06-.12-.17-.11-.29a6.22 6.22 0 001.21-.66.22.22 0 01.26.14.91.91 0 01-.49.89m.05-2.83a.32.32 0 01.36.15c0 .3.05.52-.15.76-.72.54-1.5 1.32-2.46.84-.23-.12-.17-.35-.18-.55.29-.18.63.06.92-.07a3.05 3.05 0 001.51-1.13m11.2-5.62c-.5-.29-.09-.92-.21-1.39 0-.17-.2-.17-.34-.15-.35.51-.32 1.19-.73 1.68-.11.09-.23 0-.32-.06 0-.32.27-.55.18-.92a.32.32 0 00-.34-.26.5.5 0 00-.29.55c-.27.27 0 1-.62.92-.31-.4.35-.75.07-1.18-.15-.15-.36 0-.52.11a2.65 2.65 0 01-.5 1.21.21.21 0 01-.3-.07c.13-.33.36-.72.23-1.07a1.15 1.15 0 00-.6.22c-.15.41-.18.94-.61 1.18-.27-.26.22-.63 0-1-.73 0-.81.82-1.22 1.2v-.15a.63.63 0 000-.55c-.87-.17-.58 1-1.24 1.26-.17-.14 0-.32 0-.48s-.09-.24-.23-.18c-.48.28-.55.93-1 1.31a14.92 14.92 0 01-3.12 1.44 6.81 6.81 0 01-.8-1.54c0-.08-.08-.25 0-.29a3.74 3.74 0 002.64-.41c0-.1 0-.21-.07-.25a.88.88 0 00-.66.06 2.93 2.93 0 01-2.2-.11c.25-.15.63-.14.92-.29.11-.76-.72-.06-1.1-.33a.71.71 0 01-.34-.77c-.2-.52.81-.58.37-1.07-.54 0-.87.57-1.07 1s.08 1-.47 1.06c-.2-.18-.44.08-.63-.18a1.44 1.44 0 01-.06-1.17A8.17 8.17 0 0117.53 71c.26-.08.55-.2.73.1.35.25.23.66.26 1 .14.17.36.12.47.33.25.94 1.24.82 1.91 1.08s1.08-.23 1.69-.19a22.5 22.5 0 004.85-2c.17.31.38.55.81.47.45-.45.34-1.16.61-1.68.24 0 .36.35.59.42a2.93 2.93 0 001.51.57 3.39 3.39 0 01.64 1.8 1.28 1.28 0 01-1 .52m-.52-6.16a1.63 1.63 0 00.23 1.74 3.4 3.4 0 001.59 1 2.63 2.63 0 01-1.1-.21c-.31-.16-.55-.5-.93-.53-.08 0-.21.12-.16.22.43.61 1.12.74 1.67 1.09-.61.17-1.08-.2-1.56-.42a2.76 2.76 0 01-1.13-2.57c.14-1.13 1.41-1.81 2.34-2.16.16 0 .43-.17.47 0a5.63 5.63 0 00-1.43.85c0 .09 0 .19.05.23.76-.25 1.36-.84 2.22-.8a5.83 5.83 0 00-2.25 1.49m-.12-2a6 6 0 01-1.25.56 2.59 2.59 0 01.49-1.13 5.86 5.86 0 011.28-1.15c.39-.16.82-.74 1.24-.38 0 .09-.05.14-.08.21a6.88 6.88 0 00-1.3.9.2.2 0 00.07.29h.26a3.21 3.21 0 012-.86c.09.16.31.34.2.56a15 15 0 00-2.91 1m4-.85c0-.24-.39-.43-.2-.66h.34a3.35 3.35 0 00.77 1.3.14.14 0 00.22.02c0-.41-.37-.7-.35-1.14a.4.4 0 01.52 0l.27 1.47c0 .22.21.44.14.66A5.53 5.53 0 0134 64.37m1.61 2.16c.73 0 1 .87 1.57 1.31.07.09.18 0 .24-.07-.18-.54-.68-1-.92-1.49a3.45 3.45 0 011.72 2.28c0 .34.23.71.09 1l-.31-.32c-.81-.85-2.31-1.43-2.38-2.71m1.55-1.84c0-.28-.16-.57 0-.81.12 0 .28 0 .37.08a6.31 6.31 0 01.09 2.34h-.1c-.77-.7-1.61-1.5-1.53-2.52a.32.32 0 01.39.08c.29.48.21 1.23.83 1.46.19-.22 0-.42-.06-.63m3.27 2.94c.32-.26.36-.8.46-1.2-.27-.9.46-1.45 1-2 .19-.08.4-.36.6-.2a7.77 7.77 0 01-2.1 4.53 7.84 7.84 0 01-2.11-4.53c.2-.16.41.12.61.2.57.54 1.29 1.09 1 2 .09.4.13.94.45 1.21m-1.97-1.14A23.72 23.72 0 0040 68.91a4.46 4.46 0 00.49 2 4.34 4.34 0 00.5-2 23.6 23.6 0 001.57-2.41c.15.39-.09.72 0 1.1-.52 1.16-.62 2.47-1.56 3.46a1.25 1.25 0 01-.47.53 1.19 1.19 0 01-.47-.53c-1-1-1.05-2.3-1.56-3.46 0-.38-.2-.71-.06-1.1m5 18a3.25 3.25 0 01-.44 1.6 2.47 2.47 0 01-1.21-.31c-.26 0-.4-.52-.71-.39a4.15 4.15 0 001 1.67c.14.3-.13.5-.24.74a3.1 3.1 0 01-1.39 1 3 3 0 01-1.39-1c-.12-.24-.39-.44-.25-.74a3.93 3.93 0 001-1.67c-.3-.13-.45.35-.7.39a2.54 2.54 0 01-1.22.31 3.25 3.25 0 01-.3-1.65c.55-3.22 1.4-6.31 2.17-9.44l.11-.1.13.09.11 5.25a14.83 14.83 0 00.31 3.75v.29a1 1 0 010-.14v.14V84a14.32 14.32 0 00.32-3.7l.18-5.3.12-.11.11.1c.77 3.13 1.62 6.22 2.18 9.44m-1.21-8.17a32.14 32.14 0 012.7 8c0 .66 0 1.44-.66 1.7H44a14.38 14.38 0 00-.35-3.48c-.17-1-.46-1.87-.67-2.8-.24-1.15-.64-2.23-.87-3.37m-4.87 6.17a14.38 14.38 0 00-.35 3.48h-.15c-.65-.26-.67-1-.66-1.7a32.56 32.56 0 012.7-8c-.23 1.14-.63 2.22-.86 3.37-.22.93-.5 1.84-.68 2.8m.18-12.07c-.27.94-1.18 1.53-1.94 2.13 0 .1.06.17.1.23a4.42 4.42 0 002.12-1.62 4.24 4.24 0 01-1.7 2.27 5.77 5.77 0 01-2.36.91v-.37c.6-1.76 2.51-2.37 3.83-3.53M31.5 86.51a3.69 3.69 0 01-3.18-.17 3.48 3.48 0 01-1.15-3.62c.11-.21.29-.49.17-.69-1.41.39-2 1.87-2.12 3.19h-.06a5.12 5.12 0 01-.79-3.68 3.41 3.41 0 012.1-2c0-.49-.73-.12-1-.34a1.48 1.48 0 01-.48-.79 2.21 2.21 0 01.34-1.71 3.06 3.06 0 002.54 1c1.71-.66 3.08-2.25 4.92-2.6a8.06 8.06 0 004.89-2.56l-.19.45c-1 2.61-4.14 3.58-5.47 6-.1.37-.17.9.16 1.18a1.19 1.19 0 001.14.16 1.11 1.11 0 01-.16.67 1.88 1.88 0 01-2 .73c-.36 0-.59-.69-1-.41a3.3 3.3 0 00.38 2.53c.59 1 1.74.89 2.58 1.38.18.18.53.22.62.51a4.73 4.73 0 00-2.26.74m5-11.16l-.27.52c-1.08 1.34-2.4 2.59-3.4 4a.27.27 0 01-.36-.11 1.05 1.05 0 01.12-.74 24.2 24.2 0 013.91-3.65m-5.35 7.16a2.88 2.88 0 01-.2.83c-.28-.2-.29-.7-.27-1a.64.64 0 01.47.22m7 4.45a4 4 0 01-3.44 1.23 2.53 2.53 0 01-2-1.51 3 3 0 01.63-.25c.52-.27 1 .44 1.39-.08a6.62 6.62 0 001.23.91.73.73 0 00.58 0 2.06 2.06 0 00-.57-.33 3.48 3.48 0 01-1.22-3.43A13.79 13.79 0 0137 77.2a11.46 11.46 0 00.7-1.2s-.09-.11-.15-.08a14.31 14.31 0 00-3.24 5.53 7.79 7.79 0 00-.24 3.55c-.43-.23-.88-.41-1.32-.6s-.67-.13-.94-.36a2.18 2.18 0 01.09-1.31c.15-.5.75-.4 1.07-.71a2.81 2.81 0 001-2.34c.93-1.58 2.51-2.87 3.48-4.43A7.79 7.79 0 0039 71a8.54 8.54 0 01-.55 4.25 56.23 56.23 0 00-2.77 7.15 4.28 4.28 0 00.19 4 2.21 2.21 0 002.24.51V87zm3.29 2.56a4 4 0 01-1 .47 4 4 0 01-1-.47 2.85 2.85 0 01-1.25-1.72l.08-.06a5.79 5.79 0 002.13 1.71 5.82 5.82 0 002.14-1.71l.08.06a2.87 2.87 0 01-1.26 1.72m4.79-1.33A4 4 0 0142.78 87v-.11a2.19 2.19 0 002.22-.56 4.23 4.23 0 00.19-4 57.72 57.72 0 00-2.76-7.15 8.32 8.32 0 01-.54-4.18H42a7.79 7.79 0 001.51 4.26c1 1.56 2.55 2.85 3.48 4.43a2.85 2.85 0 001 2.34c.32.31.92.21 1.06.71a2.18 2.18 0 01.1 1.31c-.27.23-.65.22-.94.36-.44.19-.89.37-1.32.6a7.79 7.79 0 00-.25-3.59 14.31 14.31 0 00-3.24-5.53c-.06 0-.1 0-.15.08A13.5 13.5 0 0044 77.2a13.91 13.91 0 012.23 6.25A3.52 3.52 0 0145 86.88c-.18.11-.42.15-.58.33a.73.73 0 00.58 0 6.31 6.31 0 001.23-.91c.42.52.88-.19 1.4.08a3.18 3.18 0 01.63.25 2.53 2.53 0 01-2 1.51m-1.88-12.79A25.06 25.06 0 0148.29 79a1 1 0 01.11.74.27.27 0 01-.36.11c-1-1.39-2.32-2.64-3.4-4l-.26-.52zm3.76-.25c1.84.35 3.21 1.94 4.92 2.6a3.09 3.09 0 002.55-1 2.25 2.25 0 01.33 1.71 1.42 1.42 0 01-.48.79c-.28.22-1-.15-1 .34a3.42 3.42 0 012.09 2 5.07 5.07 0 01-.78 3.68h-.07c-.14-1.32-.71-2.8-2.12-3.19-.12.2.05.48.17.69a3.51 3.51 0 01-1.15 3.62 3.71 3.71 0 01-3.19.17 4.7 4.7 0 00-2.26-.74c.09-.29.44-.33.62-.51.85-.49 2-.36 2.59-1.38a3.34 3.34 0 00.38-2.53c-.37-.28-.6.38-1 .41a1.89 1.89 0 01-2-.73 1.19 1.19 0 01-.16-.67 1.18 1.18 0 001.14-.16c.33-.28.26-.81.16-1.18-1.32-2.45-4.42-3.42-5.46-6l-.19-.45a8 8 0 004.88 2.56m1.65 7.4a.64.64 0 01.47-.22c0 .35 0 .85-.28 1a2.87 2.87 0 01-.19-.83m-2.48-8.59v.37a5.81 5.81 0 01-2.37-.91 4.29 4.29 0 01-1.72-2.25 4.46 4.46 0 002.12 1.62c0-.06.14-.13.11-.23-.76-.6-1.67-1.19-2-2.13 1.32 1.16 3.24 1.77 3.83 3.53m-4.4-4.67l-.31.35c-.14-.32 0-.69.09-1a3.42 3.42 0 011.72-2.28c-.24.54-.74 1-.93 1.49.07.09.17.16.24.07.53-.44.84-1.29 1.57-1.31-.07 1.28-1.57 1.86-2.38 2.71m.77-3.92c.63-.23.55-1 .83-1.46a.34.34 0 01.4-.08c.08 1-.76 1.82-1.53 2.52h-.11a6.31 6.31 0 01.1-2.34c.09-.12.24-.07.36-.08.18.24 0 .53 0 .81s-.25.41-.07.63m3.23-.95a5.53 5.53 0 01-1.67 1.57c-.07-.22.09-.44.14-.66l.26-1.47c.12-.1.41-.14.52 0 0 .44-.31.73-.35 1.14A.15.15 0 0046 65c.45-.36.53-.86.77-1.3.09-.06.23 0 .34 0 .18.23-.18.42-.2.66m-6.4.92h-.05c-1.42-3-4.87-1.73-7.47-2.37a2.5 2.5 0 01-1.72-2.24V39.88h18.45v20.8A2.5 2.5 0 0148 62.92c-2.6.64-6.06-.62-7.47 2.37m7.72-1.65a3.24 3.24 0 012 .86c.08 0 .15.06.25 0a.22.22 0 00.08-.29 6.64 6.64 0 00-1.31-.9c0-.07-.1-.12-.07-.21.42-.36.84.22 1.24.38a5.59 5.59 0 011.27 1.15 2.49 2.49 0 01.5 1.13 5.73 5.73 0 01-1.21-.54 15.33 15.33 0 00-2.92-1c-.11-.22.12-.4.2-.56m1.3 7c.56-.35 1.25-.48 1.67-1.09 0-.1-.07-.19-.15-.22-.38 0-.62.37-.94.53A2.61 2.61 0 0149 70a3.32 3.32 0 001.58-1 1.61 1.61 0 00.23-1.73 5.83 5.83 0 00-2.25-1.49c.85 0 1.45.55 2.21.8.09 0 .05-.14.05-.23a5.58 5.58 0 00-1.42-.85c0-.22.32 0 .46 0 .94.35 2.2 1 2.35 2.16a2.78 2.78 0 01-1.13 2.57c-.49.22-1 .59-1.57.42m20.16 5.48a3.63 3.63 0 01-2.15.52 1 1 0 01.94-.67c.74-.34 1.65-.89 1.65-1.84.25-.14.11-.46.42-.55s.33.2.42.37a2.28 2.28 0 01-1.28 2.17m1.72-1a6.24 6.24 0 00.11-1.21c.26 0 .67-.22.78.11 0 .49-.49.91-.89 1.1m1.18-1.8c-.52-.06-.4-1-1-.81 0 .21.14.41 0 .63a.77.77 0 01-.44.22c-.62-.37-.5-1.21-1.13-1.37-.29.19.11.37.07.58.22.8-.62 1.22-.7 1.94a1.28 1.28 0 01-.76.63c.08-.53.59-1 .39-1.65s-1-1-1.38-1.55a.5.5 0 00-.19 0c-.24.25.16.51.11.81a3.75 3.75 0 00-1 1.72c-.43.09-.77-.24-1.13-.43a5.06 5.06 0 01-1.44-2.25l.03-.1a77.05 77.05 0 018.06.16c.34.15.8 0 1.1.21a2.62 2.62 0 01-.55 1.18m1.31-2.71a.32.32 0 01-.42.14.67.67 0 01-.23-.73.41.41 0 01.7 0c.15.18 0 .41 0 .59m-3.32-5.18c.3 0 .58.23.88.33a2.74 2.74 0 011.16.74 3.91 3.91 0 011.15 2.12l-.08.08c-1.12.09-2.1-.2-3.19 0l-.08-.06.16-3.16zm1.67 4.45a.64.64 0 01-.32.73c-.24 0-.6.09-.81-.15a.66.66 0 01-.15-.63 1.19 1.19 0 01.44-.4c.34 0 .72.08.84.45M67.62 63a.57.57 0 01.1-.6c.22-.08.55 0 .66-.26-.35-.8.56-.6.94-.59.32.24-.17.68.31.82.15.09.45-.06.55.14s.06.5-.18.55-.58-.1-.63.18 0 .4-.15.49-.68.09-.92-.12a.4.4 0 00-.21-.48c-.14-.09-.39.06-.47-.13m1.93 3.07a1.5 1.5 0 01-1.07.15c-.15-.12-.39-.18-.44-.41a.68.68 0 01.23-.62.91.91 0 01.87-.3 1.65 1.65 0 01.59.52.67.67 0 01-.18.66m.08 2.93c-.26.23-.55.62-1 .44a1.28 1.28 0 01-.68-.52.94.94 0 01.14-.89 1 1 0 011-.24c.17.1.41.18.52.4s.2.58 0 .81m-5.71-1.34A5.71 5.71 0 0167.36 65c0 1 0 2.17-.16 3.23l-.14.15H63.8c-.15-.21.08-.45.1-.68m2.43 1.92a.71.71 0 01-.36.73.81.81 0 01-.81-.18.54.54 0 01-.11-.58c.2-.23.47-.52.79-.37.17.14.45.15.49.4m-3 0c.13-.31.57-.22.76 0a.54.54 0 01.08.55c-.19.14-.39.36-.63.21a.52.52 0 01-.21-.73m.21 1.35a59.85 59.85 0 017 0c1.3 0 2.54.32 3.84.41-.06.26-.36.25-.57.29-1.15-.15-2.31-.26-3.45-.44-2.32-.17-4.68 0-7 0 0 0-.09-.06-.14-.08 0-.18.26-.11.4-.15m-3.7 2.61c.91.16 1.88.8 2.78.29.32-.19.52-.61.84-.73a1 1 0 01.37.55.67.67 0 01-.4.22.45.45 0 00-.26.49c.28 0 .57-.17.81 0-.15.29-.56.15-.76.39 0 .68.64 0 1 .19s1 .06 1.39.39c-.14.19-.38.13-.58.19s-.63-.23-.58.23c.35.35 1 .26 1.49.21 1-.67.92-1.82 1.63-2.64.18 0 .33-.23.54-.11a.59.59 0 01.22.44 5.59 5.59 0 01-1.21 2.42 6.08 6.08 0 01-1.83 1.33 25.63 25.63 0 01-2.72-1.25c-.84 0-1.08-1.09-1.9-1.1-.07.1-.14.33-.33.25-.37-.38-.68-.9-1.25-1-.19.17.09.41-.1.58-.48-.18-.44-1-1.07-.92-.32.09 0 .39-.19.55-.51-.24-.71-1-1.39-1-.3.18.11.47 0 .71h-.18c-.38-.38-.5-1.06-1.05-1.11a.26.26 0 00-.18.4c0 .18.34.33.18.52-.56-.24-.52-1.15-1.18-1.22-.54.23.11.68 0 1h-.21c-.27-.27-.6-.53-.66-.88a.54.54 0 00-.62-.34.41.41 0 00-.16.42c0 .25.37.48.23.73-.71-.19-.53-1.29-1.28-1.29-.26.42.14.77.22 1.14-.16.13-.4 0-.59.07a1.34 1.34 0 01-.55-.88 7.05 7.05 0 00-.15-1.74 2.72 2.72 0 001.23-.53c.23-.07.34-.39.58-.42.28.52.16 1.23.61 1.68.76.14.86-.71 1.18-1.2.22.66.24 1.55 1.16 1.55a35 35 0 004.84 1.43m-4.33-2.31a3 3 0 01-1.11-3.2 2.22 2.22 0 01.49 1c.07.16 0 .4.19.5s.24-.11.26-.22a4.9 4.9 0 00-.44-1.56c.36-.08.62.34.79.61l.33.87c.11.73.11 1.6-.51 2m2.19-.4l.13.21a1.75 1.75 0 01-1.24-.82 7.72 7.72 0 00-.16-1.68v-.26a.26.26 0 00.37 0 4.55 4.55 0 00.39-3.08 2 2 0 01-.16-.7c.21 0 .2.26.29.4a4.46 4.46 0 010 2.68.14.14 0 00.23 0 4.8 4.8 0 00.16-3.2c.25-.25 0-.53 0-.81.43.18.58.68.71 1.09.33 2.21-1.68 3.87-.71 6.12m-2.24-9.51c1.59.14 3.42.83 3.95 2.53.46 1.42-.25 2.68-.14 4a1 1 0 00.45.62c.35.12.67-.09 1-.17.06.21-.17.4-.33.53a1.35 1.35 0 01-1.4-.06c-.14-.09-.21-.34-.4-.26s-.11.25 0 .37c.24.31.6.43.82.69a1.37 1.37 0 01-1.29-.5c.21-1.59 1.12-3 .83-4.71A4.45 4.45 0 0056.13 62l-.71-.54v-.11zM57 63.75v.11a9 9 0 01-3.24-.71 2.92 2.92 0 01-.59-1.06c.63.25 1.23.62 1.85.93.12 0 .26 0 .29-.16s-.3-.31-.46-.47c-.5-.25-1-.64-1.43-.92-.1-.18.18-.12.28-.19a7 7 0 013.3 2.47m-3.32-3.25a2.91 2.91 0 01-2 .22 3.46 3.46 0 01-1.45-.56 3.77 3.77 0 01.09-1c.6.28 1.23.94 1.92.52v-.12a4.71 4.71 0 01-2-1.62v-.4c.88 1 2.17 1.41 2.92 2.59.14.14.34.21.44.39m-.77-2.22v.22a4.23 4.23 0 01-2-1.65c-.34-.36-.21-.93-.57-1.27v-3.09l.08-.08c.52.43.23 1.26.44 1.87a3.48 3.48 0 00.77 1.93s.09 0 .13-.08a11.26 11.26 0 01-.52-2.82c.19-.15.56 0 .8-.2h.19a10.32 10.32 0 00.78 5.17m.37-6.66a2.8 2.8 0 01-1.82.84 8.35 8.35 0 01-1.2-1.18 6.87 6.87 0 01.65-1.93l.76-1.56c.19 0 .3.18.4.31a10.83 10.83 0 00-.4 2.57.36.36 0 00.45.13 2.23 2.23 0 00.27-.92l.35-1c.23 0 .49.34.78.21a20.13 20.13 0 01-.24 2.57m2.28 1.66h-.29a9 9 0 01-1.51-1.23c.11-1.18.37-2.3.44-3.5.21-.17.45-.59.73-.46.06.94.07 1.89.2 2.8a.44.44 0 00.37.21.27.27 0 00.25-.11v-2.83c0-.19.25-.1.36-.08a.43.43 0 01.37.4 17.47 17.47 0 01.32 3.46l-1.26 1.28zm3.12 5.06c-.2.15-.48.33-.72.16-.52-.48-1.25-.62-1.61-1.26l-.07-3.71a2.8 2.8 0 011-.81 7.45 7.45 0 01.21 1.6l.14 1.91c.1.19.34.1.48.07s0-.37 0-.55c0-1.06-.22-2-.18-3.09.21-.17.41.1.62.1a.89.89 0 01.86.87l.43 3.48c-.21.51-.75.85-1.15 1.23m4.5-.4c-.39.48-1 .08-1.39-.06s-.83-.5-1.27-.66c-.27-1.43-.45-3-.66-4.37.3-.34.62-.73.9-1.11h.11c.34 1.33.74 2.64 1 4 .1.16.28 0 .44 0l.1-.11c-.31-1.43-.61-2.88-1-4.28.13-.3.58-.09.84-.05l.16.19c.59 1.56 1.27 3.11 1.79 4.74 0 .7-.64 1.14-1 1.7m4.73-1.66a3.7 3.7 0 01-.51.67 8.63 8.63 0 01-2.28-.62 6.89 6.89 0 01-.76-1.57c-.44-1.23-1-2.41-1.35-3.64.36-.28.3-.79.61-1a12.13 12.13 0 011 1.85l1.06 2.34c.14.24.4.14.59.06s.07-.35 0-.49c-.6-1.35-1.38-2.63-2-4 0-.09 0-.2.08-.25a7.2 7.2 0 011.13-.06 39.56 39.56 0 013 5c.13.71-.49 1.14-.66 1.74M72 54.2c-.59.72-1.5.08-2.28.19l-.52-.25c-1-1.52-1.93-3.08-2.9-4.61a.36.36 0 01.07-.37c.06-.16.2 0 .26 0 1 1 1.76 2.1 2.65 3.15a.47.47 0 00.48-.27l-.08-.25a44.29 44.29 0 01-3-3.69.65.65 0 01.2-.66c1.58 1.13 3 2.47 4.54 3.73.26.33.8.6.86 1a12.21 12.21 0 01-.29 2m3.3-3l-.24.15a8.23 8.23 0 01-2.27.11c-1.72-1.45-3.5-2.79-5.13-4.32a1.09 1.09 0 011-.26c1.24.82 2.42 1.79 3.65 2.69.17-.07.4-.19.41-.42-1.12-1-2.33-1.78-3.48-2.73a6.58 6.58 0 01.17-.74c1.88 1 3.82 1.91 5.66 3a3.52 3.52 0 01.42 1.6 1 1 0 01-.17.89m2.77-3.73a16 16 0 01-2.27.78c-1.45-.65-2.83-1.47-4.25-2.21l-1.3-.71-1-.56c-.26-.15-.25-.42-.3-.65h.29c1.08.39 2.15.79 3.21 1.22l1.85.77c.26.12.42-.16.51-.33s-.23-.24-.34-.36l-.26-.08c-1.48-.49-2.88-1.21-4.35-1.75l-.11-.1c.22-.19.44-.65.83-.43 1.84.59 3.76 1 5.6 1.6.37.21.89.15 1.14.61a.25.25 0 000 .07c.19.75 1 1.31.76 2.14m1.48-4.95a.51.51 0 01-.31.63l-1.67 1H77c-2.15-.47-4.23-1.12-6.33-1.72a.76.76 0 01-.19-.55 40.9 40.9 0 015.14.78c.14 0 .21 0 .28-.14s.09-.42-.14-.44c-1.92-.25-3.75-.7-5.62-1.06-.12 0-.1-.21 0-.28a.87.87 0 01.47-.3c2.42.17 4.86.22 7.27.39a4.46 4.46 0 011.74 1.68m-1.17-2.37c-2.46 0-4.85-.23-7.26-.34l-.08-.08.57-.66c1.62-.11 3.3-.06 4.84 0a.38.38 0 00.15-.48l-.11-.1c-1.61 0-3.2-.19-4.77-.15-.44-.14-.59-.62-.93-.9l.11-.11c2.23-.16 4.38-.58 6.68-.64a1.38 1.38 0 011.55.39 8.8 8.8 0 011 1.16v.32a7.55 7.55 0 01-1.81 1.6M68 45.46v-.12a2.54 2.54 0 00-.11-.87.36.36 0 00-.42-.29 2.4 2.4 0 01-.14 1.16.14.14 0 010 .06c-.15.26-.78.27-.54.66a3 3 0 001.21-.6m-7.9-3a2.11 2.11 0 001 .64c.17 0 .23-.21.28-.35a1.48 1.48 0 00-1-.67.43.43 0 00-.25.38m15.56-24.78a4.91 4.91 0 01-.41 2c0 .3-.42.54-.19.84.1.1.19 0 .28-.11a6.73 6.73 0 00.84-4.65c-.13-.37 0-.92-.39-1.13a1 1 0 00-.41.45c-.11.25-.47.41-.48.7.73.25.72 1.15.76 1.87m-7.64 13.67c0 .36-.33.65-.09 1 .1 0 .17 0 .24-.08a4.65 4.65 0 00.4-1.45 2.13 2.13 0 00-1.41-.55c-.09 0-.07.13-.07.21s.34.21.51.3.51.28.42.57M11.8 39.64c0-.42-.64-.74-.3-1.18.08-.2.28-.33.26-.58-.5-.31-.64.45-1 .67-.13.52.5.82.74 1.22a.21.21 0 00.26-.13m.65-5.76c-.5 0-.77.57-1.14.87-.12.48.3.83.37 1.3.09.06.18.21.29.1a.85.85 0 00-.17-.81c0-.54.46-.85.76-1.24a.17.17 0 00-.11-.22m7.59-.26v-.15c-.71-1-1.87-1.95-1.48-3.37-.15-.13-.32-.58-.57-.37-.36 1.66.94 2.81 2.05 3.89m10 7.21c0-.29-.41-.26-.62-.38-.78-.15-1-1.41-1.87-1.06.26 1.07 1.43 1.38 2.33 1.59.06 0 .14-.06.16-.15m-7.64-5.23c.09.16.24.16.4.15a.55.55 0 00.11-.66 8.37 8.37 0 00-1.75-2 .27.27 0 00-.31.17c0 .31.35.49.48.75a6.93 6.93 0 011.07 1.59m0-13.4c-.33-.22-.85-.44-1.18-.1a.37.37 0 00-.08.4 3.79 3.79 0 001.17.21 1.27 1.27 0 00.44.08c.1-.24-.19-.45-.35-.59m-9.88 18.92c-.29.1-.47.47-.64.72-.32.58.46.78.75 1.15a.4.4 0 00.36-.1c-.08-.29-.45-.42-.6-.71s.31-.7.13-1.06m6.35-5.4a1.61 1.61 0 00-.59.44c0 .41.11 1 .49 1.14.09-.34-.14-.69-.05-1l.59-.54c-.07-.23-.3-.07-.44 0m-.13 7.44c-.18-.18.26-.77-.2-.58l-.12 1c.22.42.78.28 1.19.42a.12.12 0 000-.18c-.3-.21-.81-.17-.91-.65m-6.34-12.42a4.64 4.64 0 00.39 1.45c.08 0 .15.11.24.08.24-.35-.09-.64-.09-1s.27-.42.42-.57.39-.09.51-.3 0-.17-.07-.21a2.08 2.08 0 00-1.4.55m8.23 11.28a1.51 1.51 0 00-1 .67c.06.14.11.33.28.35a2.13 2.13 0 001-.64.44.44 0 00-.26-.38m1.16 2.81c.45 0 .51-.53.75-.8 0-.14 0-.31-.21-.37-.38.07-.44.53-.72.77 0 .11 0 .35.18.4m8.5.26c.14 0 .25-.15.29-.26-.13-.28-.46-1.29-.9-.63a1.54 1.54 0 00.61.89m-11.96-6.38c-.28.41-.91.82-.69 1.38a2.16 2.16 0 00.87.83c.07-.39-.43-.64-.46-1s.41-.78.28-1.18m.83.78c0 .15-.1.36.1.44.42-.07.82.2 1.18 0a.47.47 0 00-.18-.48c-.37 0-.84-.1-1.1.09M3.39 22c.11-.22.55-.12.35-.47s-.54-.76-.91-.57a4 4 0 00-.25 1.18 5.79 5.79 0 001.48 3.57c.08 0 .17 0 .21-.06-.51-1.14-1.19-2.25-.88-3.65m47 22.9c.05.11.16.26.29.26a1.55 1.55 0 00.62-.89c-.44-.66-.77.35-.91.63m8.79 0c.19-.05.18-.29.18-.4-.28-.24-.33-.7-.72-.77-.16.06-.17.23-.2.37.23.27.3.85.74.8M14.07 28c0-.22-.15-.42-.22-.63a3 3 0 010-1.52c0-.27-.27-.84-.64-.67A4.12 4.12 0 0014 28zm47.07 9.1a.35.35 0 00.18-.49c-.16-.41-.5 0-.76 0-.23.2-.66.26-.69.6.35.5.85-.1 1.27-.13m-2.48-14.37a3.8 3.8 0 001.18-.21.37.37 0 00-.09-.4c-.32-.34-.85-.12-1.17.1-.16.14-.45.35-.36.59a1.27 1.27 0 00.44-.08m1.44 10.55a.26.26 0 00-.3-.17 8.63 8.63 0 00-1.76 2 .55.55 0 00.12.66c.15 0 .31 0 .4-.15a6.93 6.93 0 011.07-1.6c.13-.26.47-.44.47-.75m2.82-3.53c-.25-.21-.42.24-.57.37.39 1.42-.77 2.33-1.48 3.37v.15c1.11-1.08 2.42-2.23 2.05-3.89m-9.49 9.66c-.91-.35-1.09.91-1.86 1.06-.21.12-.58.09-.62.38 0 .09.1.12.16.15.89-.21 2.06-.52 2.32-1.59m8.76-2.09c.38-.16.5-.73.48-1.14a1.66 1.66 0 00-.58-.44c-.15-.06-.38-.22-.45 0l.59.54c.1.34-.14.69 0 1M3.24 31c0-.67-.9-1.7.07-2.2.18-.31.82-.2.63-.69a2.91 2.91 0 00-1.66.82c-.15.72.36 1.26.59 1.88.11.11.2.25.37.19m2.59-10.45c.22-.3-.19-.54-.2-.84a4.91 4.91 0 01-.41-2c0-.72 0-1.62.77-1.87 0-.29-.38-.45-.49-.7a.86.86 0 00-.41-.45c-.34.21-.25.76-.38 1.13a6.68 6.68 0 00.83 4.65c.09.08.18.21.29.11M2.69 42.93a.7.7 0 010-.85c.12-.18.31-.39.19-.65-.44.1-.62.6-.83.93-.14.63.64 1 1 1.3a.38.38 0 00.3 0c-.13-.31-.43-.45-.66-.68M2.3 38c.12-.32.43-.65.31-1-.47.08-.7.66-1 1a2.26 2.26 0 00.94 1.64c0-.07.18 0 .21-.1-.15-.51-.61-.93-.42-1.52m.23-2.68c0-.56-.51-1.23 0-1.8.14-.29.62-.53.43-.87a1.6 1.6 0 00-1.23 1.16 2.94 2.94 0 00.71 1.51z" fill="#67757d"/></g></g></svg>